<?xml version="1.0" encoding="UTF-8" standalone="no"?>
<svg
   xmlns:dc="http://purl.org/dc/elements/1.1/"
   xmlns:cc="http://creativecommons.org/ns#"
   xmlns:rdf="http://www.w3.org/1999/02/22-rdf-syntax-ns#"
   xmlns:svg="http://www.w3.org/2000/svg"
   xmlns="http://www.w3.org/2000/svg"
   xmlns:xlink="http://www.w3.org/1999/xlink"
   xmlns:sodipodi="http://sodipodi.sourceforge.net/DTD/sodipodi-0.dtd"
   xmlns:inkscape="http://www.inkscape.org/namespaces/inkscape"
   viewBox="0 0 759.09 782.21"
   version="1.1"
   id="svg303"
   sodipodi:docname="IIT-Goa-Logo-w-Motto-IS.svg"
   inkscape:version="0.92.4 (5da689c313, 2019-01-14)">
  <title
     id="title1114">IIT Goa Logo</title>
  <metadata
     id="metadata307">
    <rdf:RDF>
      <cc:Work
         rdf:about="">
        <dc:format>image/svg+xml</dc:format>
        <dc:type
           rdf:resource="http://purl.org/dc/dcmitype/StillImage" />
        <dc:title>IIT Goa Logo</dc:title>
        <dc:date>December 15, 2019</dc:date>
        <dc:contributor>
          <cc:Agent>
            <dc:title>Tushya Chheda</dc:title>
          </cc:Agent>
        </dc:contributor>
      </cc:Work>
    </rdf:RDF>
  </metadata>
  <sodipodi:namedview
     pagecolor="#ffffff"
     bordercolor="#666666"
     borderopacity="1"
     objecttolerance="10"
     gridtolerance="10"
     guidetolerance="10"
     inkscape:pageopacity="0"
     inkscape:pageshadow="2"
     inkscape:window-width="3000"
     inkscape:window-height="1859"
     id="namedview305"
     showgrid="false"
     inkscape:zoom="1.7067253"
     inkscape:cx="443.4913"
     inkscape:cy="383.52309"
     inkscape:window-x="-14"
     inkscape:window-y="-14"
     inkscape:window-maximized="1"
     inkscape:current-layer="svg303" />
  <defs
     id="defs21">
    <style
       id="style2">.cls-1{fill:#232262;}.cls-2{fill:#0e0e1a;}.cls-3{fill:#896025;}.cls-4{fill:#4e2211;}.cls-5{fill:#39102a;}.cls-6{fill:#3b102c;}.cls-7{fill:#3b102d;}.cls-8{fill:#3a0f2d;}.cls-11,.cls-13,.cls-9{fill:none;}.cls-10{fill:url(#linear-gradient);}.cls-11,.cls-12,.cls-13,.cls-14,.cls-15,.cls-16{stroke:#232262;}.cls-11,.cls-12,.cls-13,.cls-14,.cls-15,.cls-16,.cls-17{stroke-miterlimit:10;}.cls-11{stroke-width:2px;}.cls-12{fill:url(#linear-gradient-2);}.cls-14{fill:url(#linear-gradient-3);}.cls-15{fill:url(#linear-gradient-4);}.cls-16{fill:url(#linear-gradient-5);}.cls-17{fill:#232162;stroke:#232162;stroke-width:1.5px;}</style>
    <linearGradient
       id="linear-gradient"
       x1="536.14"
       y1="294.9"
       x2="536.14"
       y2="418.35"
       gradientUnits="userSpaceOnUse">
      <stop
         offset="0"
         stop-color="#f6eb16"
         id="stop4" />
      <stop
         offset="1"
         stop-color="#ed2224"
         id="stop6" />
    </linearGradient>
    <linearGradient
       id="linear-gradient-2"
       x1="212.11"
       y1="706.8"
       x2="225.98"
       y2="706.8"
       gradientUnits="userSpaceOnUse">
      <stop
         offset="0"
         stop-color="#231f20"
         id="stop9" />
      <stop
         offset="1"
         stop-color="#232262"
         id="stop11" />
    </linearGradient>
    <linearGradient
       id="linear-gradient-3"
       x1="267.13"
       y1="735.98"
       x2="297.09"
       y2="735.98"
       xlink:href="#linear-gradient-2" />
    <linearGradient
       id="linear-gradient-4"
       x1="844.98"
       y1="706.73"
       x2="858.85"
       y2="706.73"
       gradientUnits="userSpaceOnUse">
      <stop
         offset="0"
         stop-color="#232262"
         id="stop15" />
      <stop
         offset="1"
         stop-color="#231f20"
         id="stop17" />
    </linearGradient>
    <linearGradient
       id="linear-gradient-5"
       x1="773.87"
       y1="735.98"
       x2="803.84"
       y2="735.98"
       xlink:href="#linear-gradient-4" />
  </defs>
  <g
     id="Layer_1"
     data-name="Layer 1">
    <path
       class="cls-1"
       d="M530.11,90.22a345.84,345.84,0,1,1-69.92,8.45A348,348,0,0,1,530.11,90.22Zm-92,24.7A330.8,330.8,0,0,0,389,134.36a14.26,14.26,0,0,1,5.93,2.64,37.52,37.52,0,0,1,5.12,5c1.92-.79,3.83-1.63,5.75-2.42a28,28,0,0,1,4-1.78q13.74-5.44,27.93-9.66c4.46-1.3,8.93-2.63,13.49-3.61,1.69-.32,3.36-.76,5-1.21-1.21-1.1-2.53-2.07-3.83-3.07a16.31,16.31,0,0,0-4.54-2.69,9.92,9.92,0,0,0-5.32.13,38.83,38.83,0,0,0-7.07,2.57c-.41.16-.91.58-1.32.19L431.12,118a43.09,43.09,0,0,1,7.92-3,15.71,15.71,0,0,1,6.35-.65,15.23,15.23,0,0,1,5.86,2.37c2.91,1.82,5.6,3.94,8.39,5.93,3.45-.8,6.9-1.55,10.38-2.19a20.84,20.84,0,0,0,2.49-.55,6,6,0,0,1-3.37-3.74,5.09,5.09,0,0,1,1.47-4.53,14.78,14.78,0,0,1,6.21-3.68,36.94,36.94,0,0,1,12-1.67,44.89,44.89,0,0,1,21.88,6.41c-.47.46-.92,1-1.42,1.38-.26.13-.51-.06-.73-.16a38.9,38.9,0,0,0-17.31-5.14,30,30,0,0,0-11.2,1.6,12.19,12.19,0,0,0-4.73,2.91,4.16,4.16,0,0,0-1.26,3.45,3.33,3.33,0,0,0,1.88,2.6,355.33,355.33,0,0,1,102.8-3,10.33,10.33,0,0,0-1.14-5.12,8.35,8.35,0,0,0-3.6-3.46,13.82,13.82,0,0,0-6.13-1.35,7.29,7.29,0,0,0-4.42,1.25,2.54,2.54,0,0,0-1,2.44,7.3,7.3,0,0,0,2.53,3.86.6.6,0,0,1-.72.14c-1.33-.49-2.67-.93-4-1.46a8.8,8.8,0,0,1-2.33-2.68,3.59,3.59,0,0,1-.11-3.45,5.34,5.34,0,0,1,3.16-2.31,16.53,16.53,0,0,1,6.68-.44,20.69,20.69,0,0,1,11.61,5.15,12.19,12.19,0,0,1,4.11,8q3,.41,6,.84c.53.92,1.09,1.81,1.58,2.75a.75.75,0,0,1-.78.17c-2.35-.34-4.7-.71-7.06-1-1,7.63-2.09,15.25-3.1,22.88-.21.12-.42.29-.67.18-1.32-.35-2.62-.78-4-1.11.79-6.54,1.73-13.07,2.57-19.6.09-1,.34-2,.34-2.92a10.8,10.8,0,0,0-1.6-.22c-8.1-.89-16.22-1.58-24.36-1.87-.13,2.63-.24,5.25-.37,7.88a19.54,19.54,0,0,1,4.63-1.66,13,13,0,0,1,10.13,1.84,6,6,0,0,1,2.57,4.3,6.28,6.28,0,0,1-1.66,4.21,21.6,21.6,0,0,1-4.54,3.88c-.26.19-.59,0-.83-.11-1.23-.69-2.47-1.38-3.72-2,2.26-1.64,4.83-3.06,6.43-5.43.54-.85,1-2.09.29-3s-2.26-1-3.46-1.06a18.34,18.34,0,0,0-10.13,3.66c-.12,3.53-.28,7.06-.4,10.59a.85.85,0,0,1-.71.18c-1.31-.26-2.62-.51-3.92-.79.12-2.53.3-5.05.37-7.58a18,18,0,0,1-10.77,1.71,14.14,14.14,0,0,1-7.7-3.19,5.45,5.45,0,0,1-2-4.69,5.05,5.05,0,0,1,2.64-3.42,15.47,15.47,0,0,1,6.24-1.82,45.25,45.25,0,0,1,12.12.78c0-1.49.13-3,.11-4.48-8.24-.18-16.48-.21-24.7.19-1.94,0-3.9.12-5.83.29,0,1.22.16,2.44.22,3.65q.66,9.56,1.33,19.12c.1.39-.34.61-.66.54l-4.09-.38q-.78-11.33-1.59-22.64c-4.92.33-9.83.81-14.73,1.35a40.2,40.2,0,0,1,1.47,10.46,10.83,10.83,0,0,1-.84,4.61,3.42,3.42,0,0,1-3.68,1.57,14.31,14.31,0,0,1-4.48-1.87,3.58,3.58,0,0,1-2-2.33,1.82,1.82,0,0,1,1.26-1.79,24.27,24.27,0,0,1,5-1.27,31.73,31.73,0,0,0-1.16-8.83c-5.32.64-10.6,1.5-15.89,2.36,1.39,7.6,3,15.17,4.41,22.76l-.37.32c-1.45,0-2.91.08-4.36.09-1.45-7.43-3-14.84-4.41-22.27-1.79.26-3.56.67-5.32,1.06-2.11.36-4.19.86-6.27,1.31,1.86,7.49,3.75,15,5.61,22.48l-.34.35c-1.45.09-2.91.22-4.37.3q-2.77-11-5.57-22.05a39.21,39.21,0,0,1-4,.82c-2.29.58-4.57,1.18-6.85,1.75,1,2.77,1.76,5.61,2.6,8.43,1.48,5,3,10.05,4.45,15.09-1.93-.36-3.86-.68-5.79-1-.3-1-.63-1.95-.89-2.93a9.37,9.37,0,0,1-2.46,2.6,22.37,22.37,0,0,1-5.93,3.51,15.44,15.44,0,0,1-11.57-.25,4.34,4.34,0,0,1-2.66-2.73,3.85,3.85,0,0,1,.53-2.78,20.09,20.09,0,0,1-8.75-1.32,3.82,3.82,0,0,1-2.25-1.93,1.84,1.84,0,0,1,.85-1.95,14.65,14.65,0,0,1,4.18-2.05c2.26-.85,4.54-1.67,6.82-2.47-.34-1-.76-2-1.1-3-7.3,2.62-14.6,5.23-21.72,8.32,3.26,7.05,6.57,14.08,9.85,21.12a.93.93,0,0,1-.59.47c-1.32.33-2.62.71-3.94,1-3.22-6.89-6.48-13.76-9.71-20.64-3.59,1.62-7.17,3.29-10.7,5,3.59,6.82,7.25,13.6,10.85,20.4.16.29-.13.62-.41.66-1.35.41-2.66.91-4,1.26-1.11-2.23-2.26-4.44-3.43-6.63-3,4.69-6,9.34-9,14-1.65.3-3.31.58-5,.86q3.51-5.22,7-10.43a21.25,21.25,0,0,1-6,1.62,10.67,10.67,0,0,1-5.71-.59,9.85,9.85,0,0,1-4-4.09c-1-1.59-2-3.18-2.89-4.83-1.55.92-3.07,1.89-4.62,2.82-1-.35-2.05-.69-3.07-1a.85.85,0,0,1,.43-.63A318,318,0,0,1,387,148c3.59-1.83,7.3-3.4,10.94-5.13a29.44,29.44,0,0,0-11.11.12c-3.2.76-5.77,3-8.06,5.23-.35.29-.64.83-1.17.72-1.33-.39-2.66-.8-4-1.26,2.72-2.77,5.91-5.32,9.73-6.33,3.66-1,7.49-.86,11.25-.75a17.68,17.68,0,0,0-4.17-3.64,5.74,5.74,0,0,0-4.73-.27,35.85,35.85,0,0,0-8,4.08c-.37.29-.79.05-1.13-.13a337.32,337.32,0,0,0-62,43.17A343.51,343.51,0,0,0,282.52,216c4-1.95,9.06-2.61,13.05-.25A304.22,304.22,0,0,1,329,184.67c1.08.2,2.15.45,3.23.67a1,1,0,0,1-.35.64c-1.91,1.53-3.83,3-5.69,4.64,5.1,5.86,10.16,11.77,15.25,17.64l-.09.48c-1.27.79-2.58,1.53-3.83,2.36-1.68-1.84-3.19-3.83-4.84-5.68a17.67,17.67,0,0,1-4.06,5.67,20.79,20.79,0,0,1-7.68,5.06,18.94,18.94,0,0,1-11.44.39c0-.26-.07-.54.08-.77,1.26-2,2.61-3.87,3.69-5.94a6.16,6.16,0,0,0,.84-2.82,1.92,1.92,0,0,0-1.61-1.66,6.2,6.2,0,0,0-2.81.07c-4.13,3.89-8,8-11.92,12.14,1.33,1.33,2.77,2.55,4.15,3.84l12.93,11.81a.52.52,0,0,1-.1.81l-3.31,2.68c-5.68-5.13-11.32-10.32-17-15.42-2.68,3.1-5.43,6.16-8,9.39,6,4.83,11.86,9.73,17.79,14.58a.51.51,0,0,1,.07.84c-1.06,1-2.16,1.94-3.19,3-3.89-3.11-7.68-6.35-11.55-9.48a78.46,78.46,0,0,0-6.94,9.39,16.49,16.49,0,0,0-2.4,6.12,2.79,2.79,0,0,0,1.16,2.92c1.26.67,2.75.33,4.05,0a42,42,0,0,0,9.35-4.75c.12,1.56.28,3.11.37,4.67,0,.28-.3.39-.5.5a46.33,46.33,0,0,1-9.35,3.21,12.15,12.15,0,0,1-6.05-.05,4.9,4.9,0,0,1-3.38-3.26,9,9,0,0,1,.74-5.46,41.72,41.72,0,0,1,5.53-9c1.59-2.14,3.26-4.21,5-6.25-1.29-1-2.5-2.1-3.83-3a291.6,291.6,0,0,0-21.47,30.94,13.09,13.09,0,0,1,4.4,2,7.06,7.06,0,0,1,2.71,4.4,20.74,20.74,0,0,1-.47,8.07c4.87-2.46,9.13-5.94,13.41-9.28.44-.28.79-.81,1.31-.92.36,1.4.82,2.77,1.13,4.17a1.73,1.73,0,0,1-.83.77,132.39,132.39,0,0,1-14.24,8.09,23,23,0,0,1-6.27,2.1c-.78.09-1.78.09-2.23-.67-.65-1.19-.16-2.58.35-3.72a63.83,63.83,0,0,1,3.55-6.16c-.72-2.43-3.09-3.94-5.45-4.46-3.57,6.14-6.89,12.43-10,18.79a3.78,3.78,0,0,0-.44,1.08c6.8,3.4,13.55,6.9,20.34,10.33a.56.56,0,0,1,.27.89c-.85,1.27-1.71,2.52-2.52,3.81-6.84-3.38-13.62-6.89-20.44-10.29-1.81,4-3.64,8-5.29,12l0,.12q10.58,4.65,21.17,9.26c.05.26.15.53,0,.77-.81,1.36-1.57,2.74-2.39,4.09q-4.65-2.11-9.31-4.19a114.79,114.79,0,0,0-4.94,14.51c-.16.31.18.52.33.74a6.17,6.17,0,0,1,1.81,4.84,8.05,8.05,0,0,1-2.72,4.59,13.3,13.3,0,0,1-2.81,2.21,1.9,1.9,0,0,1-2,.08,2.84,2.84,0,0,1-.64-2.22,50.19,50.19,0,0,1,1.06-6.2,38.68,38.68,0,0,0-5.25-2.17,5.8,5.8,0,0,0-4.24.07,5.6,5.6,0,0,0-2.53,3.31,10.22,10.22,0,0,0-.59,5.38,2.37,2.37,0,0,0,1.35,1.82,2.24,2.24,0,0,0,2-.59c1.51-1.25,2.4-3,3.52-4.59a4.57,4.57,0,0,1,.44.92c-.65,1.64-1.4,3.23-2.18,4.81a13.25,13.25,0,0,1-2.13,2.92A7.05,7.05,0,0,1,228,349.3a2.7,2.7,0,0,1-2.94-1.37,8.39,8.39,0,0,1-.74-4.94,20.68,20.68,0,0,1,5.17-11.39,14.47,14.47,0,0,1,3.41-3,5.28,5.28,0,0,1,3.55-.58,33.92,33.92,0,0,1,6.17,2.15c1.61-4.93,3.43-9.78,5.41-14.57-3-1.35-6-2.59-9-3.91-1.44,3.59-2.79,7.22-4.09,10.86l-3.1,1.33c-.06-.23-.19-.47-.07-.7a321.64,321.64,0,0,1,14-33.81,302.84,302.84,0,0,1,43.76-66.69c.93-1.11,1.94-2.16,2.85-3.29a10,10,0,0,0-6.41-2,11,11,0,0,0-7.12,4,10.28,10.28,0,0,0-2.76,5.34,2.76,2.76,0,0,0,1.21,2.82c1.51.86,3.33.5,4.94.16a.76.76,0,0,1-.39.77c-1.22.82-2.36,1.78-3.6,2.57a7.39,7.39,0,0,1-4.91.05,3.58,3.58,0,0,1-1.93-3.54,346.25,346.25,0,0,0-22.14,31.87A335.16,335.16,0,0,0,206.74,368.2,341,341,0,0,0,203.64,490a335.66,335.66,0,0,0,49.6,130.21,338.87,338.87,0,0,0,140.5,122.95,335,335,0,0,0,103.92,29.56,340.18,340.18,0,0,0,120.71-7.6,335.72,335.72,0,0,0,94-39.25A339,339,0,0,0,838,590.32,335.19,335.19,0,0,0,870,492a340.89,340.89,0,0,0-2.42-122.06,334.5,334.5,0,0,0-35.94-96.75c-.74,4.52-2.62,8.74-4.08,13.05a331.17,331.17,0,0,1,24.33,66.2,30.43,30.43,0,0,1-1.87,3c-.4-.22-.41-.7-.52-1.08-.65-2.65-1.36-5.27-2.06-7.9-7.39,2.25-14.77,4.56-22.16,6.84-.49-.32-.45-.94-.53-1.45-.18-1.35-.4-2.7-.58-4.05,7.23-2.26,14.46-4.54,21.69-6.78-1.25-4.47-2.7-8.89-4.14-13.3-7.24,2.73-14.48,5.43-21.71,8.19-.59-.29-.53-1-.66-1.55-.23-1.27-.55-2.52-.74-3.79,2.12-.73,4.23-1.5,6.34-2.26a29.33,29.33,0,0,1-3.86-5.83A29.93,29.93,0,0,1,817.74,310a12.23,12.23,0,0,1,1.28-6.33,4.35,4.35,0,0,1,3.69-2.32,6.76,6.76,0,0,1,4.39,2.25,24.12,24.12,0,0,1,4.81,7.67,73.66,73.66,0,0,1,3.92,12.83c1.37-.5,2.74-1.06,4.11-1.58q-5.12-14.46-11.64-28.36c-.92-2-1.79-3.95-2.85-5.83-6.7,3.67-13.48,7.21-20.2,10.84-.36.28-.78-.09-.83-.46-.46-1.41-.94-2.82-1.42-4.22,6.7-3.64,13.43-7.24,20.14-10.86-2-3.8-4-7.55-6.09-11.28q-10,6-19.93,12.12c-.19-.13-.47-.18-.53-.42l-1.7-4.23c6.5-4,13.07-7.93,19.56-12-2.72-4.51-5.48-9-8.41-13.36a36.86,36.86,0,0,1-9.67,6.65c-1.6.64-3.58,1.39-5.16.34s-2-3.18-2.1-5a10.28,10.28,0,0,1,.36-4.28,1.71,1.71,0,0,1,1.68-1.12,3.07,3.07,0,0,1,1.78,1,31.52,31.52,0,0,1,3.08,3.64,31.16,31.16,0,0,0,7.38-5.15c-2-3-4.13-5.87-6.24-8.78.23-1.07.48-2.14.71-3.21.2.06.47.08.59.3a305.81,305.81,0,0,1,27.45,44c.71-1.56,1.33-3.16,1.94-4.76a17.63,17.63,0,0,0,1.37-5.31,11.11,11.11,0,0,0-1.53-5.37,44.5,44.5,0,0,0-5-7.43c-.55-.51,0-1.17.19-1.7-3.9-6.25-8.05-12.35-12.36-18.32a338.36,338.36,0,0,0-156.3-118.84,338.9,338.9,0,0,0-216-6.2ZM535,124.1a6.42,6.42,0,0,0-3.36,2.67,2.59,2.59,0,0,0,.77,3.24,7.6,7.6,0,0,0,4.46,1,20.71,20.71,0,0,0,10.54-3.46c.07-1.35.09-2.71.14-4.06C543.43,123,539,122.48,535,124.1ZM428.77,134q1.2,2.87,2.13,5.84c-2.25.84-4.56,1.54-6.82,2.38a16.8,16.8,0,0,0-4.47,2,1.68,1.68,0,0,0-.76,1.85,1.92,1.92,0,0,0,1.76,1.11,30.3,30.3,0,0,0,4.26.09c.31,0,.49-.3.73-.47a12.56,12.56,0,0,1,4.7-2.54c1.14.56,2.31,1.08,3.43,1.71a9.81,9.81,0,0,0-6,4.42,2.32,2.32,0,0,0-.25,2.27,2.7,2.7,0,0,0,2.37.82,11.69,11.69,0,0,0,5.86-1.75,24.94,24.94,0,0,0,7.78-7.49c.31-.54.75-1.18.48-1.83-.72-2.3-1.45-4.6-2.17-6.9a44.92,44.92,0,0,0-1.7-5C436.31,131.51,432.54,132.76,428.77,134Zm-46.49,19.56c-4.63,2.38-9.22,4.85-13.71,7.5,1,1.74,2,3.52,3.07,5.25.89,1.52,1.89,3.14,3.54,3.93a5.08,5.08,0,0,0,4.26-.19,15.21,15.21,0,0,0,6.34-5.33c.72-1.15,1.33-2.63.65-3.94-1.18-2.28-2.45-4.52-3.65-6.79C382.65,153.82,382.56,153.35,382.28,153.55ZM322.4,193.73c-2.83,2.51-5.68,5-8.44,7.58a6.2,6.2,0,0,0-1.13,1.16,9.11,9.11,0,0,1,4.63.95,3.06,3.06,0,0,1,1.32,3.35c-.56,2.35-2,4.32-3.25,6.35-.15.27-.38.67-.1.94a3.3,3.3,0,0,0,1.81.31,11,11,0,0,0,5.58-2.18,20,20,0,0,0,5.49-6.2,5.81,5.81,0,0,0,1-3.63,4.33,4.33,0,0,0-1.27-2.28C326.12,198,324.33,195.79,322.4,193.73ZM820.19,310a14.09,14.09,0,0,0,1.37,6.4,28.8,28.8,0,0,0,4.85,7.81c1.07,1.1,2.48,2.25,4.13,2,1.05-.28,2-.76,3.06-1.13a49.64,49.64,0,0,0-2.58-8.48,23.66,23.66,0,0,0-4.68-7.8c-1.1-1.07-2.64-2.07-4.23-1.63A3,3,0,0,0,820.19,310Z"
       transform="translate(-155.94 -90.15)"
       id="path25" />
    <path
       class="cls-1"
       d="M621.78,124.39a1.18,1.18,0,0,1,.81,0,337.2,337.2,0,0,1,40,12.69c4.71,1.94,9.47,3.76,14.17,5.73,6.73,2.92,13.32,6.16,19.82,9.57l-1.42,2.55c-2.36-1.25-4.66-2.59-7.09-3.7-2.55-1.28-5.1-2.54-7.71-3.68a22.49,22.49,0,0,1,.52,3.37,9.62,9.62,0,0,1-2.55,6.93,23.11,23.11,0,0,0,7.39,3.82,17.37,17.37,0,0,0,5.19,1.05c.06,1.41.06,2.83.11,4.25a29,29,0,0,1-7.63-3.21,19.93,19.93,0,0,1-6-5.18,15.21,15.21,0,0,1-6.71,1.51c2.12,4,4.24,8.07,6.14,12.22l-1.36,0C672.82,167,670,161.74,667,156.59a11.46,11.46,0,0,1-1.71-3.87,1.87,1.87,0,0,1,.56-1.82,3.69,3.69,0,0,1,2-.61,10.38,10.38,0,0,1,6.67,2c.43.27.82.74,1.38.68,1-.09,1.61-1,2.08-1.74.52-.93,1.15-2,.73-3.1a4.24,4.24,0,0,0-1.49-2,37.85,37.85,0,0,0-5.81-2.6c-2.49-1-5-2-7.44-3-1.93-.81-3.93-1.38-5.85-2.19q-4.26,10.78-8.45,21.62c-.5.27-.94-.11-1.37-.34l-3-1.67c1.2-3,2.47-6.06,3.63-9.11a41.67,41.67,0,0,1-15.31-6.59,13.61,13.61,0,0,1-5.18,1.75c3.24,4,7.29,7.22,11.3,10.41-1.09.8-2.27,1.47-3.4,2.2-.24.22-.55,0-.72-.18-2.5-2.61-5-5.25-7.26-8a32.27,32.27,0,0,1-4.52-6.93,7.89,7.89,0,0,1-.88-3c0-.89.86-1.43,1.62-1.64,1.65-.45,3.29.31,4.83.86.41.11.8.43,1.23.38a9.49,9.49,0,0,0,2-4.07,16.88,16.88,0,0,0,.58-3.8c-.17-.24-.51-.2-.75-.31-3.11-.89-6.25-1.7-9.37-2.54C622.65,126.32,622.17,125.38,621.78,124.39Zm15.75,7a16.53,16.53,0,0,1-2.43,9c4.64,2.68,9.88,4.05,15.09,5.17,1.14-3,2.3-5.92,3.4-8.9C648.28,134.78,642.94,133,637.53,131.38Z"
       transform="translate(-155.94 -90.15)"
       id="path27" />
    <path
       class="cls-1"
       d="M653.81,128.4c1.81-.32,3.6-.7,5.41-1,1.13,1.42,2.29,2.82,3.38,4.28-1.82.29-3.63.65-5.44,1C656.06,131.2,654.87,129.85,653.81,128.4Z"
       transform="translate(-155.94 -90.15)"
       id="path29" />
    <path
       class="cls-1"
       d="M696.75,158.28a3.15,3.15,0,0,1,2.68-1.61,12.91,12.91,0,0,1,5.37,1.06,14.53,14.53,0,0,1,4.6,2.87,11.61,11.61,0,0,1,4.2,8.19,4.5,4.5,0,0,1-2.15,4.2,9.49,9.49,0,0,1-5.58.5A55.86,55.86,0,0,1,694.22,170a11.85,11.85,0,0,0,1.89,4.53c1.44,2,3.68,3.17,5.86,4.17a15.85,15.85,0,0,0,10.14,1.21,7.59,7.59,0,0,0,3.77-1.66c1.86-2.58,3.54-5.29,5.44-7.84-1.76-1.18-3.57-2.3-5.32-3.49-.4-1.31-.63-2.67-.94-4,6.56,4,12.91,8.29,19.16,12.75,4.53,3.57,9.19,7,13.65,10.65a302.91,302.91,0,0,1,27,24.87c.29.37.89.67.71,1.23-.13,1-.2,1.91-.38,2.85-.61-.11-.93-.68-1.34-1.07-1.48-1.53-2.92-3.11-4.48-4.55-5.52,5.49-11,11.06-16.47,16.58-.59-.06-.83-.62-1.14-1-.66-.91-1.34-1.81-2-2.72q4.62-4.65,9.3-9.27a49,49,0,0,0-9.62-8.58c-.68.71-1.29,1.49-2,2.15a2,2,0,0,1-1.56.68,3.82,3.82,0,0,1-3-2.11,14.38,14.38,0,0,1-1.49-5.17,4.25,4.25,0,0,1,.44-2.63,1.9,1.9,0,0,1,2-.48,11.48,11.48,0,0,1,3.69,1.66,50.89,50.89,0,0,1,7.77,6.51c2,1.92,3.85,4,5.76,6,1.61-1.69,3.27-3.34,4.9-5a305.89,305.89,0,0,0-24.76-21.59c-4.87,6.07-9.64,12.23-14.49,18.33h-.46c-1-1.06-2-2.15-3.07-3.2q7.05-9,14.14-18.06c-1.61-1.3-3.34-2.44-5-3.74-2.13-1.47-4.25-2.94-6.39-4.4-1.93,2.91-4,5.72-6,8.58q-4.05,5.7-8.1,11.41c-1-1.67-1.92-3.37-2.93-5,.94-1.45,2-2.84,2.9-4.29-4.63,1.11-9.38-.59-13.27-3.06-2.18-1.51-3.5-3.91-4.61-6.26a30.45,30.45,0,0,1-2.25-6.9,6.68,6.68,0,0,1,0-2.78,26.87,26.87,0,0,0,6.76,2.42,41.29,41.29,0,0,0,7.24,1.2,9,9,0,0,0,3.6-.43,2.53,2.53,0,0,0,1.5-1.47,4.86,4.86,0,0,0-1.56-5.07,9.06,9.06,0,0,0-5.57-1.87,3,3,0,0,0-2.08.7,2.61,2.61,0,0,0-.5,2.52,7.29,7.29,0,0,0,3.22,4,8.4,8.4,0,0,1-2.52-.88,10.25,10.25,0,0,1-4.55-4.14A4.9,4.9,0,0,1,696.75,158.28Z"
       transform="translate(-155.94 -90.15)"
       id="path31" />
    <path
       class="cls-1"
       d="M219.2,429.82a8.15,8.15,0,0,1,8.85,4.4,8.25,8.25,0,0,1-.65,8,8,8,0,1,1-12.86-9.62A7.94,7.94,0,0,1,219.2,429.82Z"
       transform="translate(-155.94 -90.15)"
       id="path33" />
    <path
       class="cls-1"
       d="M851.39,429.81a8,8,0,1,1-6.54,7.48A8.07,8.07,0,0,1,851.39,429.81Z"
       transform="translate(-155.94 -90.15)"
       id="path35" />
    <path
       class="cls-1"
       d="M863.23,482.89a8,8,0,0,1,2.36-.53c.59.05.66.75.66,1.22a39.32,39.32,0,0,1-.56,4.44,11.16,11.16,0,0,1-.72,2.78,1.42,1.42,0,0,1-1,.64c-2.28.61-4.56,1.22-6.85,1.8-.87,5-1.88,10-2.88,15,1.92,1.2,3.78,2.48,5.67,3.72a1.43,1.43,0,0,1,.77,1.15,16.8,16.8,0,0,1-.65,4,8.1,8.1,0,0,1-.95,2.64c-.39.46-1,.2-1.45-.07-1.09-.7-2.1-1.52-3.14-2.27q-11.09-8.11-22.62-15.61c-.42-.28-.89-.6-1-1.13a7.9,7.9,0,0,1,.2-2.47c.33-1.73.62-3.46,1.07-5.16.18-.74.58-1.54,1.42-1.65C843.57,488.9,853.47,486.1,863.23,482.89Zm-25.79,14.84c1.19.79,2.45,1.48,3.67,2.24,2.9,1.73,5.72,3.58,8.61,5.3.71-3.57,1.44-7.13,2-10.71C847,495.68,842.23,496.76,837.44,497.73Z"
       transform="translate(-155.94 -90.15)"
       id="path37" />
    <path
       class="cls-1"
       d="M238.43,482.6c.52,0,1.19-.33,1.58.16a6.45,6.45,0,0,1,.8,2.21,20,20,0,0,1,.53,4.43c0,.45-.15,1.09-.71,1.13l-30.57,4.67c-.71.13-1-.67-1.18-1.2a22.72,22.72,0,0,1-1-6c0-.6,0-1.6.79-1.66Z"
       transform="translate(-155.94 -90.15)"
       id="path39" />
    <path
       class="cls-1"
       d="M239.24,499.16a2.57,2.57,0,0,1,2.39.32c1.09.94,1.11,2.48,1.44,3.78.29,1.67,1,3.36.62,5.08s-1.91,2.79-3.07,4c-5.09,4.92-9.84,10.16-15,15,0,0,0,.14,0,.19,3-1,6.13-1.81,9.21-2.64l11.86-3.12c.64-.26,1.09.4,1.33.89a18.29,18.29,0,0,1,1.17,4c.11.57.08,1.47-.66,1.59l-27.17,7.82a2.22,2.22,0,0,1-2.41-.58,8.3,8.3,0,0,1-1.35-3.34c-.39-1.5-1-3-.76-4.61a7.65,7.65,0,0,1,2.67-3.94c2.73-2.9,5.46-5.8,8.26-8.63a81.29,81.29,0,0,1,7.91-7.39c.3-.23.59-.48.87-.73-7.54,1.6-15.11,3.11-22.66,4.68a3.41,3.41,0,0,1-1,.11c-.58-.3-.76-1-1-1.55a18.44,18.44,0,0,1-.87-4.58c0-.51,0-1.24.66-1.32C220.86,502.48,230.05,500.84,239.24,499.16Z"
       transform="translate(-155.94 -90.15)"
       id="path41" />
    <path
       class="cls-1"
       d="M835.1,518.11a21.17,21.17,0,0,1,7.64.57,17.27,17.27,0,0,1,8.42,4.45,13.45,13.45,0,0,1,3.69,7.68,24.7,24.7,0,0,1-1.54,11.72,21.66,21.66,0,0,1-4.74,8.12,11.59,11.59,0,0,1-6.15,3.33c-3.47.65-7-.19-10.26-1.43a17.21,17.21,0,0,1-8.8-6.9,15.9,15.9,0,0,1-1.75-10.82,30.89,30.89,0,0,1,2.91-8.82,14.72,14.72,0,0,1,6-6.47A13.48,13.48,0,0,1,835.1,518.11Zm-1.42,8a7.46,7.46,0,0,0-4.59,3.18,14.11,14.11,0,0,0-2,4.92,8.36,8.36,0,0,0,3.84,9,20.94,20.94,0,0,0,6.93,2.7,10.38,10.38,0,0,0,5.69-.13,7.6,7.6,0,0,0,4.07-3.76c1.41-2.81,2.35-6.17,1.3-9.26a8.22,8.22,0,0,0-3.71-4.43,19.78,19.78,0,0,0-6.42-2.23A12.94,12.94,0,0,0,833.68,526.15Z"
       transform="translate(-155.94 -90.15)"
       id="path43" />
    <path
       class="cls-1"
       d="M249.78,536a1.81,1.81,0,0,1,1.74.23,5,5,0,0,1,1.22,2.42c1,3,2.12,6,3.14,9.06,1.21,3.73,1.91,7.82.8,11.67a13.81,13.81,0,0,1-6.59,8.08,21.37,21.37,0,0,1-8.88,2.84,12.42,12.42,0,0,1-8.36-2.5,20.18,20.18,0,0,1-5.66-7.22,75,75,0,0,1-3.51-9c-.52-1.57-1.1-3.12-1.57-4.7a1.92,1.92,0,0,1,1.08-2.5C232.05,541.58,240.92,538.8,249.78,536Zm-21,14.86c.43,1.54,1,3,1.58,4.54,1.08,2.78,2.85,5.58,5.73,6.74,3.16,1.28,6.69.34,9.64-1.06,2.73-1.28,5.17-3.63,5.68-6.72.73-3.65-1-7.1-2.15-10.48C242.4,546.16,235.6,548.57,228.76,550.85Z"
       transform="translate(-155.94 -90.15)"
       id="path45" />
    <path
       class="cls-1"
       d="M815.7,555.4c.74-.64,1.53-1.47,2.59-1.44a7.62,7.62,0,0,1,2.66.78,2.92,2.92,0,0,1,1.43,1.06c.15.52-.3.92-.66,1.22a20.09,20.09,0,0,0-6.53,9,10.53,10.53,0,0,0,.65,8.71,13,13,0,0,0,7.69,5.62,9.8,9.8,0,0,0,7.58-.68,12.19,12.19,0,0,0,5-6.06,11.27,11.27,0,0,0,.89-4.51l-6.67-2.75c-.94,2-1.76,4.16-2.71,6.21-.23.46-.84.45-1.26.36a8.29,8.29,0,0,1-2.58-1.09c-.44-.28-1-.81-.68-1.37,1.6-3.66,3.16-7.35,4.65-11.06a1.87,1.87,0,0,1,2.49-1.1c3.89,1.47,7.76,3,11.64,4.47a2.5,2.5,0,0,1,1.47,1.12,4.37,4.37,0,0,1,.09,1.94,34.38,34.38,0,0,1-3.73,12.56,20.56,20.56,0,0,1-6.61,7.69,13.47,13.47,0,0,1-9.94,2,20.13,20.13,0,0,1-8.73-4.12,15.42,15.42,0,0,1-5.53-9.32,20.33,20.33,0,0,1,1.66-11.37A24.41,24.41,0,0,1,815.7,555.4Z"
       transform="translate(-155.94 -90.15)"
       id="path47" />
    <path
       class="cls-1"
       d="M263.19,568.1a.92.92,0,0,1,1.3.25,14.43,14.43,0,0,1,2.14,4.21c.17.55.43,1.43-.27,1.72l-25.72,12.28a14.33,14.33,0,0,1-1.65.74c-.62,0-1-.62-1.29-1a18.32,18.32,0,0,1-2-4.39c-.14-.5-.31-1.29.31-1.54Q249.59,574.2,263.19,568.1Z"
       transform="translate(-155.94 -90.15)"
       id="path49" />
    <path
       class="cls-1"
       d="M271.91,587.8a8.53,8.53,0,0,1,1.89-.18c.59.1.94.65,1.27,1.1.79,1.23,1.49,2.52,2.21,3.8a6.24,6.24,0,0,1,.82,2.08,1.7,1.7,0,0,1-.52,1.15q-9.52,11.46-18.34,23.5a5.36,5.36,0,0,1-1.53,1.58c-.57.16-1-.39-1.3-.77a39.72,39.72,0,0,1-2.48-4c-.29-.57-.7-1.35-.17-1.91,1.47-1.86,3-3.7,4.47-5.54-2.28-3.84-4.52-7.69-6.61-11.63-2.4.27-4.78.71-7.18,1-.69,0-1.12-.59-1.46-1.09a28,28,0,0,1-2-3.85c-.19-.48-.36-1.21.2-1.51a7.27,7.27,0,0,1,2.27-.4Q257.74,589.91,271.91,587.8Zm-15.05,8.4c1.51,2.81,3.12,5.58,4.74,8.34.67-.69,1.25-1.47,1.89-2.2,2.42-2.89,4.95-5.71,7.4-8.58C266.22,594.6,261.55,595.44,256.86,596.2Z"
       transform="translate(-155.94 -90.15)"
       id="path51" />
    <path
       class="cls-1"
       d="M796.33,592.35c.25-.37.79-.72,1.2-.34a12.92,12.92,0,0,1,1.84,2.59c3.25,5.12,6.32,10.35,9.35,15.61,3.15,2,6.42,3.9,9.61,5.89.53.34.25,1.07.07,1.54a16.72,16.72,0,0,1-2.59,4.05c-.36.39-.91.95-1.46.57-2.8-1.76-5.57-3.55-8.36-5.32-.5-.28-1-.76-1.57-.73q-9.9-.65-19.74-1.86c-.54-.12-1.25-.11-1.55-.64s.23-1,.48-1.49a29.15,29.15,0,0,1,2.43-3.4,1.66,1.66,0,0,1,1.7-.66c4.71.63,9.44,1.08,14.14,1.81-2.74-3.61-5.13-7.46-7.69-11.19-.27-.42-.69-.83-.6-1.37a5.88,5.88,0,0,1,.88-2.1A29.37,29.37,0,0,1,796.33,592.35Z"
       transform="translate(-155.94 -90.15)"
       id="path53" />
    <path
       class="cls-1"
       d="M283.87,609.3a3.25,3.25,0,0,1,2-.79,2.69,2.69,0,0,1,2,1.38c.82,1.25,1.75,2.43,2.5,3.73a3.75,3.75,0,0,1,.14,3.3c-.58,1.39-1.32,2.71-2,4.07-2.81,5.7-5.37,11.53-8.25,17.2,5-4.12,10.28-7.88,15.43-11.81.76-.54,1.46-1.16,2.24-1.65.55-.21,1.07.23,1.45.58a14.86,14.86,0,0,1,2.12,2.69c.27.44.45,1.13-.06,1.48L279.7,646.55a3.41,3.41,0,0,1-1.86,1,2.73,2.73,0,0,1-2.29-1.16c-.68-.86-1.37-1.72-2-2.59a4.33,4.33,0,0,1-1.1-2.92c0-1.56.93-2.89,1.54-4.27q3-6.78,6.26-13.44a71.67,71.67,0,0,1,3.67-6.58c-4.71,3.34-9.55,6.5-14.31,9.77-1.77,1.19-3.52,2.4-5.29,3.58-.61.44-1.25-.18-1.65-.61a13.91,13.91,0,0,1-2.31-3.52c-.22-.46-.27-1.12.26-1.37Q272.22,616.86,283.87,609.3Z"
       transform="translate(-155.94 -90.15)"
       id="path55" />
    <path
       class="cls-1"
       d="M779.55,619.22a8.77,8.77,0,0,1,3.33-1.52,4.89,4.89,0,0,1,2.83,1.25,3.67,3.67,0,0,1,1.46,1.59c0,.46-.42.72-.78.89a18.22,18.22,0,0,0-7.42,5.46,10.14,10.14,0,0,0-2.44,7.16,11.61,11.61,0,0,0,4.85,8.08,11.35,11.35,0,0,0,8.18,2.7c3.47-.44,6.38-3,8-6a9.61,9.61,0,0,0,.83-2.36c-1.94-1.42-3.88-2.85-5.83-4.25q-1.81,2.38-3.68,4.76a.87.87,0,0,1-.74.44,4.25,4.25,0,0,1-2-1,4.36,4.36,0,0,1-1.46-1.59c-.18-.36.08-.67.29-.93,2.2-2.78,4.33-5.6,6.42-8.46a1.93,1.93,0,0,1,1.18-.91,2.26,2.26,0,0,1,1.9.53c3.39,2.38,6.8,4.73,10.18,7.11a1.9,1.9,0,0,1,.86,2.16,29.48,29.48,0,0,1-3.92,8.15,23,23,0,0,1-8.23,7.65,13.61,13.61,0,0,1-8.88,1.33,18.27,18.27,0,0,1-9.27-5.32,16.33,16.33,0,0,1-4.83-9.52,16.12,16.12,0,0,1,2.49-10.22A23.73,23.73,0,0,1,779.55,619.22Z"
       transform="translate(-155.94 -90.15)"
       id="path57" />
    <path
       class="cls-1"
       d="M313.67,643.09c.37-.2.78,0,1.1.24a13,13,0,0,1,2.2,2.06,5.74,5.74,0,0,1,1.15,1.7.85.85,0,0,1-.35.93q-10.92,10.1-21.83,20.2c-.46.47-1.12.06-1.55-.25a15.61,15.61,0,0,1-3.15-3.29c-.28-.44-.71-1.12-.2-1.55q8.67-7.73,17.38-15.43C310.18,646.17,311.88,644.57,313.67,643.09Z"
       transform="translate(-155.94 -90.15)"
       id="path59" />
    <path
       class="cls-1"
       d="M759.68,645c3.74-.84,7.62.44,10.75,2.49a25.19,25.19,0,0,1,7.53,7.33,12.65,12.65,0,0,1,1.93,9.13,17.77,17.77,0,0,1-5.66,9.43c-2.51,2.37-5.54,4.42-9,4.93a12.88,12.88,0,0,1-9.57-2.79,27.66,27.66,0,0,1-6.58-6.94,14.48,14.48,0,0,1-2.5-9.48,15.28,15.28,0,0,1,4.46-8.69C753.4,648,756.27,645.78,759.68,645Zm-.21,6.22a9,9,0,0,0-4.81,3,7.3,7.3,0,0,0-1.92,3.86,8.36,8.36,0,0,0,1.43,5.81,23.12,23.12,0,0,0,4.48,5c2.16,1.88,5,3.59,8,2.91a9.58,9.58,0,0,0,4.69-2.92,8.16,8.16,0,0,0,2.32-4.31,8,8,0,0,0-1.63-6,23.45,23.45,0,0,0-6.28-5.8A8.6,8.6,0,0,0,759.47,651.26Z"
       transform="translate(-155.94 -90.15)"
       id="path61" />
    <path
       class="cls-1"
       d="M321.16,654.23a3.87,3.87,0,0,1,1.53-1.11,2.35,2.35,0,0,1,2.22.61c.87.8,1.72,1.63,2.58,2.44a4.44,4.44,0,0,1,1.54,2.4,9.21,9.21,0,0,1-.62,3.73c-2,6.69-3.49,13.5-5.49,20.18,3.4-4.09,7-8,10.56-11.93,1.35-1.47,2.67-3,4-4.43.44-.52,1.18-.18,1.65.11a13.53,13.53,0,0,1,2.62,2.21,1,1,0,0,1,.09,1.44l-17.94,20.68a3.66,3.66,0,0,1-1.63,1.36,2.65,2.65,0,0,1-2.41-.6c-.85-.69-1.68-1.39-2.52-2.1a4.11,4.11,0,0,1-1.59-2.53,10.44,10.44,0,0,1,.67-4.2q1.86-7.89,4.07-15.7c.54-1.91,1.27-3.77,2-5.62-5.52,5.62-11.07,11.19-16.62,16.77-.45.52-1.16.13-1.61-.17a14.07,14.07,0,0,1-2.86-2.75c-.32-.41-.64-1.07-.16-1.47Q311.2,663.88,321.16,654.23Z"
       transform="translate(-155.94 -90.15)"
       id="path63" />
    <path
       class="cls-1"
       d="M731.16,669a.9.9,0,0,1,1.21.27c5.53,6.33,11.08,12.65,16.58,19,2.74-2.16,5.36-4.46,8-6.74.4-.44,1-.21,1.45.11a9.39,9.39,0,0,1,2.06,2.16c.29.44.62,1.14.1,1.54-3.68,3.24-7.45,6.37-11.29,9.43a3.73,3.73,0,0,1-2,1.09,1.94,1.94,0,0,1-1.62-.85l-17.78-21.25c-.27-.35-.65-.65-.74-1.09a2.69,2.69,0,0,1,1-1.49A12.53,12.53,0,0,1,731.16,669Z"
       transform="translate(-155.94 -90.15)"
       id="path65" />
    <path
       class="cls-1"
       d="M347.07,675.71c3.24-.35,6.39,1.12,8.88,3.1a14.07,14.07,0,0,1,3.84,4.6,1.7,1.7,0,0,1-.24,1.74,15.89,15.89,0,0,1-1.65,2.19c-.28.25-.59.6-1,.55s-.63-.6-.85-1a12.5,12.5,0,0,0-3.85-4.76,4.69,4.69,0,0,0-3.55-1,3.37,3.37,0,0,0-2.53,2.53,6.43,6.43,0,0,0,1,3.75,51.52,51.52,0,0,1,3.51,6.5,8.36,8.36,0,0,1,.11,5.77,9.45,9.45,0,0,1-7.11,5.86c-3.86.63-7.69-1.05-10.69-3.35a16.63,16.63,0,0,1-4.63-5.45c-.36-.82-.85-1.77-.43-2.65a10.6,10.6,0,0,1,1.84-2.38c.38-.34.84-.83,1.4-.67s.74.95,1,1.48a12.55,12.55,0,0,0,5.94,6.74,4.51,4.51,0,0,0,3.89.24,3.3,3.3,0,0,0,1.95-3,10.54,10.54,0,0,0-1.8-4.51,24.25,24.25,0,0,1-2.73-5.72,7.77,7.77,0,0,1,1.16-6.56A9.19,9.19,0,0,1,347.07,675.71Z"
       transform="translate(-155.94 -90.15)"
       id="path67" />
    <path
       class="cls-1"
       d="M717.82,680.41a12.69,12.69,0,0,1,9.56,2.5A26.63,26.63,0,0,1,734,690a14.55,14.55,0,0,1,2.58,10.19c-.59,3.7-3,6.82-6,9a20.32,20.32,0,0,1-9.62,4.28,11.62,11.62,0,0,1-8.21-2.25A24.21,24.21,0,0,1,706.5,704c-1.91-3.24-3.18-7.06-2.6-10.85a13.62,13.62,0,0,1,5.26-8.52A19.94,19.94,0,0,1,717.82,680.41Zm-1.21,6a10.55,10.55,0,0,0-4.36,2.48,6.79,6.79,0,0,0-2.16,5.07,10.33,10.33,0,0,0,1.23,4.56,25,25,0,0,0,3.3,5,11.67,11.67,0,0,0,4.51,3.55,6.75,6.75,0,0,0,5.09-.14,12.24,12.24,0,0,0,3.89-2.58,6.81,6.81,0,0,0,2-5.53,12.41,12.41,0,0,0-2.25-5.48A22.91,22.91,0,0,0,723,688,7.51,7.51,0,0,0,716.61,686.42Z"
       transform="translate(-155.94 -90.15)"
       id="path69" />
    <path
       class="cls-1"
       d="M363.57,685.17c.31-.2.64,0,.91.18,5.85,3.89,11.86,7.54,18,11,.54.23.42.9.24,1.34a10.7,10.7,0,0,1-1.58,2.61c-.31.35-.8.8-1.3.54-2.24-1.23-4.43-2.56-6.66-3.82-.8,1-1.42,2.16-2.15,3.22-3.89,6-7.76,12-11.66,17.93-.36.56-1.13.28-1.63.09A15.66,15.66,0,0,1,354,716c-.39-.34-.9-.91-.49-1.41q7.08-10.44,14.2-20.86c-1.92-1.27-3.87-2.47-5.78-3.74-.33-.26-.79-.42-1-.8a3.18,3.18,0,0,1,.79-2A5.93,5.93,0,0,1,363.57,685.17Z"
       transform="translate(-155.94 -90.15)"
       id="path71" />
    <path
       class="cls-1"
       d="M691.5,695.69a5.07,5.07,0,0,1,2.27-.85.92.92,0,0,1,.78.56L709.43,719a2.1,2.1,0,0,1,.08,2.37,6.94,6.94,0,0,1-2.36,1.67c-1.23.66-2.46,1.57-3.92,1.48a8.7,8.7,0,0,1-4.1-1.88c-3.83-2.33-7.63-4.7-11.37-7.15a72.13,72.13,0,0,1-7.62-5.49q5.28,9.72,10.54,19.45a9.78,9.78,0,0,1,.68,1.33c0,.53-.45.88-.82,1.16a13.57,13.57,0,0,1-3.37,1.61c-.55.18-1.36.26-1.59-.4L673.11,709a4,4,0,0,1-.7-2,2.18,2.18,0,0,1,1.33-1.75c1.22-.59,2.43-1.21,3.67-1.77a3.7,3.7,0,0,1,2.9-.11,21.46,21.46,0,0,1,3.27,2c3.66,2.46,7.4,4.8,11.13,7.16,2.06,1.28,4,2.68,6.1,4-3.86-5.87-7.35-12-11-18-.21-.38-.6-.82-.32-1.26A5.46,5.46,0,0,1,691.5,695.69Z"
       transform="translate(-155.94 -90.15)"
       id="path73" />
    <path
       class="cls-1"
       d="M386.68,699a4.61,4.61,0,0,1,2.64.74,9.09,9.09,0,0,1,2.41,1.59.76.76,0,0,1,.09,1q-7.2,12.82-14.43,25.62c-.14.23-.32.49-.62.51a5.47,5.47,0,0,1-2.26-.66,12.94,12.94,0,0,1-3-1.84.83.83,0,0,1-.26-1.16l14.95-25.28C386.34,699.34,386.45,699.11,386.68,699Z"
       transform="translate(-155.94 -90.15)"
       id="path75" />
    <path
       class="cls-1"
       d="M395.55,703.65c.33-.26.71,0,1,.12q9.35,4.62,19,8.56a.85.85,0,0,1,.5,1.13,9.68,9.68,0,0,1-1.29,3c-.27.44-.8.93-1.35.61-2.32-.95-4.63-1.92-6.92-2.94-3.59,7.32-7.12,14.66-10.67,22-.23.4-.35,1-.9,1.06a6.86,6.86,0,0,1-2.69-.72,10.12,10.12,0,0,1-2.81-1.63.74.74,0,0,1-.13-1q5.68-11.16,11.38-22.3c-1.95-.93-3.92-1.84-5.86-2.8a7,7,0,0,1-1.32-.72c-.31-.66.11-1.37.37-2A6.54,6.54,0,0,1,395.55,703.65Z"
       transform="translate(-155.94 -90.15)"
       id="path77" />
    <path
       class="cls-1"
       d="M664.33,709.41c.53-.14,1.33-.29,1.59.36q6.48,13.23,12.93,26.47c.29.41,0,.9-.38,1.15a13.44,13.44,0,0,1-3,1.56,5.54,5.54,0,0,1-2.35.49c-.4-.07-.54-.46-.68-.76-1.72-3.75-3.46-7.48-5.18-11.22-2.36.95-4.7,1.93-7.07,2.84-1.35.57-2.75,1-4.06,1.62,1.63,3.79,3.18,7.63,4.79,11.44a.85.85,0,0,1-.09,1.08,8.74,8.74,0,0,1-2.65,1.35,8.43,8.43,0,0,1-3,.66.86.86,0,0,1-.71-.68q-5-12.74-10-25.44c-.25-.68-.57-1.33-.76-2s.51-.86.92-1.09A13.87,13.87,0,0,1,648.1,716c.52-.11,1.31-.23,1.53.42,1.46,3.47,2.9,7,4.35,10.42,3.67-1.36,7.3-2.83,10.92-4.31-1.55-3.43-3.16-6.83-4.72-10.25-.34-.58.25-1.07.7-1.34A13.91,13.91,0,0,1,664.33,709.41Z"
       transform="translate(-155.94 -90.15)"
       id="path79" />
    <path
       class="cls-1"
       d="M420.08,714.5a2.3,2.3,0,0,1,1.53,0,13.38,13.38,0,0,1,3.44,1.4c.39.23.84.66.59,1.16-2.31,5.72-4.67,11.42-7,17.13a7.67,7.67,0,0,0-.52,5,5.75,5.75,0,0,0,3,3.33,7.51,7.51,0,0,0,6.27.57,7.19,7.19,0,0,0,3.7-4.34c2.12-5.88,4.22-11.76,6.35-17.63a.73.73,0,0,1,.75-.56,9,9,0,0,1,2.88.58,6.36,6.36,0,0,1,2.19,1.06c.31.28.17.71.05,1.06-2,5.9-4,11.81-6,17.7a11.56,11.56,0,0,1-6.3,7.16c-3.6,1.47-7.67.85-11.21-.46-3-1.11-6-2.84-7.63-5.68a9.51,9.51,0,0,1-.89-6.84,26,26,0,0,1,1.82-4.9q3.27-7.59,6.57-15.16C419.8,714.91,419.86,714.64,420.08,714.5Z"
       transform="translate(-155.94 -90.15)"
       id="path81" />
    <path
       class="cls-1"
       d="M633.76,720.66a15,15,0,0,1,4.68,0,2.28,2.28,0,0,1,1.53.76,10.74,10.74,0,0,1,1.23,2.74,2.82,2.82,0,0,1,.16,1.83c-.28.44-.87.29-1.28.19a12.4,12.4,0,0,0-5.64-.43,8.06,8.06,0,0,0-4.11,1.91,7.54,7.54,0,0,0-2.23,4.71,16,16,0,0,0,1,6.85,13.6,13.6,0,0,0,3.26,5.54,7.23,7.23,0,0,0,4.93,2,10.78,10.78,0,0,0,8-3.63c.53-.53.89-1.26,1.57-1.63s1,.39,1.18.83a11.44,11.44,0,0,1,1.06,3.11,3.39,3.39,0,0,1-1.37,2.55,17.94,17.94,0,0,1-10.58,4.59,12.94,12.94,0,0,1-9.12-2.29,17,17,0,0,1-5.7-8.8,19.38,19.38,0,0,1-.41-11.55,12.59,12.59,0,0,1,5.18-6.81A16.91,16.91,0,0,1,633.76,720.66Z"
       transform="translate(-155.94 -90.15)"
       id="path83" />
    <path
       class="cls-1"
       d="M447.2,723.74c.25-.33.66-.25,1-.13q10.07,2.86,20.31,5.06c.53,0,.7.62.66,1.09a10.16,10.16,0,0,1-.67,3c-.19.47-.57,1.1-1.18.91q-3.7-.8-7.4-1.68c-2.17,8-4.3,16.06-6.46,24.08a.82.82,0,0,1-.83.64,12.67,12.67,0,0,1-5.59-1.46.79.79,0,0,1-.21-1q3.46-11.89,6.92-23.79c-2.17-.59-4.34-1.17-6.51-1.78a4.5,4.5,0,0,1-1.2-.42c-.4-.57-.14-1.31,0-1.92A7,7,0,0,1,447.2,723.74Z"
       transform="translate(-155.94 -90.15)"
       id="path85" />
    <path
       class="cls-1"
       d="M598.63,730c5-1,10-2.08,14.93-3.26.52-.16.87.37,1.06.78a8.53,8.53,0,0,1,.76,2.89c0,.42-.1,1-.6,1-3.58.88-7.17,1.7-10.78,2.43.5,2.34,1.08,4.66,1.61,7,0,.36.46.09.68.11,2.55-.56,5.1-1.1,7.64-1.71a6.83,6.83,0,0,1,1.42-.26c.53.1.76.64,1,1.09a8.76,8.76,0,0,1,.61,2.58c0,.42-.11,1-.6,1-3.16.77-6.35,1.45-9.53,2.13.65,2.88,1.29,5.77,2,8.63,3.66-.81,7.33-1.59,11-2.49.41-.08.93-.32,1.3,0a4.46,4.46,0,0,1,1,2,3.8,3.8,0,0,1,.13,2.11c-.11.33-.49.38-.78.47-5,1.21-10.08,2.34-15.15,3.33a4.17,4.17,0,0,1-2.61.07,2.08,2.08,0,0,1-1-1.66c-1.83-8.78-3.72-17.53-5.53-26.31A1.69,1.69,0,0,1,598.63,730Z"
       transform="translate(-155.94 -90.15)"
       id="path87" />
    <path
       class="cls-1"
       d="M473.76,730.18a2.89,2.89,0,0,1,2,0c4.75.91,9.53,1.7,14.32,2.4a.72.72,0,0,1,.73.64,7.74,7.74,0,0,1-.3,3.06c-.16.48-.43,1.23-1.07,1.11-3.68-.49-7.34-1.13-11-1.74-.47,2.42-1,4.83-1.45,7.25,3.15.57,6.32,1.06,9.48,1.56.6.05.73.75.72,1.25a8.09,8.09,0,0,1-.59,3,.86.86,0,0,1-1,.54c-3.2-.45-6.39-1.05-9.59-1.53-.55,2.88-1.17,5.76-1.72,8.64q5.76,1,11.54,1.86a.86.86,0,0,1,.87.65,6.82,6.82,0,0,1-.24,3c-.16.57-.51,1.37-1.25,1.2q-8.4-1.2-16.73-2.81a1.74,1.74,0,0,1-1.54-2.07c1.91-8.72,3.88-17.42,5.81-26.14C472.9,731.29,473.08,730.5,473.76,730.18Z"
       transform="translate(-155.94 -90.15)"
       id="path89" />
    <path
       class="cls-1"
       d="M571.06,734.06c7-.74,14-1.72,21-2.89.53-.16.88.36,1,.8a10.14,10.14,0,0,1,.61,3c0,.46-.07,1.15-.65,1.21-2.51.44-5,.83-7.55,1.21,1.25,7.59,2.53,15.17,3.79,22.76a17.11,17.11,0,0,1,.3,2.15c-.22.54-.87.67-1.36.84a15.16,15.16,0,0,1-4.24.51c-.47,0-1.16-.13-1.2-.72q-1.82-12.33-3.58-24.65c-2.57.28-5.13.64-7.7.87-.5.05-.74-.5-.88-.88a9.79,9.79,0,0,1-.35-3.32C570.26,734.53,570.55,734,571.06,734.06Z"
       transform="translate(-155.94 -90.15)"
       id="path91" />
    <path
       class="cls-1"
       d="M516.48,735.12a22,22,0,0,1,7.37.15,12.45,12.45,0,0,1,7.45,3.92c2.35,2.72,3.21,6.38,3.39,9.9.19,3.94-.26,8.1-2.36,11.52a12.54,12.54,0,0,1-7.06,5.39,21.4,21.4,0,0,1-8.9.61c-3.37-.41-6.86-1.54-9.18-4.13s-3-5.93-3-9.18c0-4.31.78-8.8,3.21-12.44A13.32,13.32,0,0,1,516.48,735.12Zm1.44,5a7.34,7.34,0,0,0-4.73,3.26,13.4,13.4,0,0,0-1.78,5.21,23.69,23.69,0,0,0-.13,6.46,6.83,6.83,0,0,0,6.53,6.46,9.16,9.16,0,0,0,5.89-.95,8,8,0,0,0,3.46-4.7,21.49,21.49,0,0,0,.69-6.63,13.06,13.06,0,0,0-1.31-5.75,6.36,6.36,0,0,0-3.72-3A10.69,10.69,0,0,0,517.92,740.17Z"
       transform="translate(-155.94 -90.15)"
       id="path93" />
    <path
       class="cls-1"
       d="M542.11,735.82q7.07-.12,14.11-.53c.62-.15.95.51,1.07,1a9.77,9.77,0,0,1,.19,3.1c-.06.44-.3,1-.84,1-3.39.21-6.77.36-10.16.45,0,2.75.18,5.5.26,8.25,3.15-.09,6.31-.22,9.46-.41.42-.05,1,0,1.16.43a7.44,7.44,0,0,1,.44,3.38c0,.5-.18,1.25-.8,1.3-3.36.21-6.72.33-10.08.46.09,3.83.26,7.66.36,11.5,0,.6-.66.79-1.13.9a14.81,14.81,0,0,1-4.65.07c-.51-.08-1.17-.35-1.09-1q-.17-13.18-.31-26.36a9.73,9.73,0,0,1,.12-2.53A1.84,1.84,0,0,1,542.11,735.82Z"
       transform="translate(-155.94 -90.15)"
       id="path95" />
    <path
       class="cls-2"
       d="M734.89,174.85c.55-.19.09.71-.23.52A.41.41,0,0,1,734.89,174.85Z"
       transform="translate(-155.94 -90.15)"
       id="path97" />
    <path
       class="cls-3"
       d="M412.05,365.51q47.16,22.58,94.3,45.21l7.47,3.59c4.64,2.22,9.27,4.46,13.92,6.66,2.24,1.09,4.5,2.16,6.75,3.25-1.84-.72-3.59-1.64-5.39-2.44-5.7-2.63-11.39-5.29-17.1-7.91q-49.71-23.07-99.46-46.08c-1.89,2.68-3.67,5.45-5.55,8.14C408.6,372.43,410.39,369,412.05,365.51Z"
       transform="translate(-155.94 -90.15)"
       id="path99" />
    <path
       class="cls-3"
       d="M656.67,366.4c.62-.3,1.23-.61,1.87-.89,1.65,3.49,3.45,6.92,5.06,10.43-1.88-2.7-3.68-5.45-5.55-8.15Q607,391.45,556,415.08c-6.75,3.09-13.47,6.29-20.24,9.33,8.34-4.05,16.72-8,25.07-12Z"
       transform="translate(-155.94 -90.15)"
       id="path101" />
    <path
       class="cls-3"
       d="M412.44,370.4a1.09,1.09,0,0,1,1.11.44q49.82,22.65,99.66,45.27c6.18,2.77,12.31,5.66,18.52,8.36-.54.24-1.1.46-1.65.67s-.87.42-1.31.19Q470.62,397.87,412.44,370.4Z"
       transform="translate(-155.94 -90.15)"
       id="path103" />
    <path
       class="cls-3"
       d="M651.11,373.54c2.36-1,4.67-2.19,7.06-3.16q-58,27.42-116.1,54.84a1.5,1.5,0,0,1-.87.17c-.8-.26-1.56-.6-2.34-.89,5.46-2.44,10.9-4.94,16.36-7.41Z"
       transform="translate(-155.94 -90.15)"
       id="path105" />
    <path
       class="cls-3"
       d="M411.6,372.39c3.35,1.41,6.63,3,9.95,4.49Q475,401.26,528.49,425.62c-.5.32-1,.67-1.44,1a.56.56,0,0,1-.73.06Z"
       transform="translate(-155.94 -90.15)"
       id="path107" />
    <path
       class="cls-3"
       d="M638.4,381.72c6.87-3.1,13.69-6.3,20.58-9.34q-57.16,27.09-114.33,54.15c-.32.1-.68.43-1,.2s-.93-.68-1.4-1l-.07-.19c8.43-3.76,16.81-7.65,25.22-11.46Z"
       transform="translate(-155.94 -90.15)"
       id="path109" />
    <path
       class="cls-3"
       d="M410.41,374.2c3.34,1.43,6.61,3,9.92,4.5l87.19,39.94c6.25,2.85,12.47,5.75,18.74,8.56a6.55,6.55,0,0,1-1.83,1.46Q467.42,401.45,410.41,374.2Z"
       transform="translate(-155.94 -90.15)"
       id="path111" />
    <path
       class="cls-3"
       d="M655.49,376.3c1.57-.67,3.09-1.5,4.7-2.1q-57,27.21-114.05,54.47c-.42-.08-.67-.47-1-.7a5,5,0,0,1-.77-.75l.33-.2c17-7.74,34-15.58,51.08-23.37Z"
       transform="translate(-155.94 -90.15)"
       id="path113" />
    <path
       class="cls-3"
       d="M409.2,375.81c3.51,1.51,6.95,3.21,10.44,4.79l104,48.25a1.51,1.51,0,0,1,.55.46c-.42.5-.74,1.08-1.2,1.53-.47.06-.85-.33-1.26-.49Q465.46,403.1,409.2,375.81Z"
       transform="translate(-155.94 -90.15)"
       id="path115" />
    <path
       class="cls-3"
       d="M654.66,378.88c2.25-1,4.45-2.13,6.73-3.07l-112.66,54.6c-.41.12-.84.65-1.25.34s-.72-1-1.1-1.43a3.09,3.09,0,0,1,1.39-.86Z"
       transform="translate(-155.94 -90.15)"
       id="path117" />
    <path
       class="cls-4"
       d="M403.87,382.06c.84-1.43,1.46-3,2.24-4.44q57.64,26.85,115.26,53.72a13.41,13.41,0,0,0,1.78.76,13.9,13.9,0,0,1,21.3-3.65,13.8,13.8,0,0,1,3,3.65c2-.78,3.93-1.81,5.9-2.68L664.49,377.6l.44.83c.56,1.25,1.24,2.45,1.77,3.72l-.47.21q-58.37,27.25-116.77,54.45c-.55.2-.26.86-.3,1.3a14,14,0,0,1-1.63,7.55A15.22,15.22,0,0,1,542.3,451a13.88,13.88,0,0,1-18-3.47c-.44-.59-.84-1.22-1.26-1.82a14,14,0,0,1-1.64-7.56c0-.43.26-1.1-.29-1.29q-58.33-27.21-116.67-54.4Zm122.3,53.38a6.37,6.37,0,0,0-.53,2.75,9,9,0,0,0,1.1,5.44,7.07,7.07,0,0,0,1.73,2.18,9.6,9.6,0,0,0,13.65,0,4.3,4.3,0,0,0,1-1.05,9.13,9.13,0,0,0,1.82-6.58,7.21,7.21,0,0,0-.88-3.57,9.79,9.79,0,0,0-17.88.83Z"
       transform="translate(-155.94 -90.15)"
       id="path119" />
    <path
       class="cls-5"
       d="M533.76,459.92l0,0Z"
       transform="translate(-155.94 -90.15)"
       id="path121" />
    <path
       class="cls-6"
       d="M539.58,461.93l.06,0Z"
       transform="translate(-155.94 -90.15)"
       id="path123" />
    <path
       class="cls-7"
       d="M540.58,462.73l.07,0Z"
       transform="translate(-155.94 -90.15)"
       id="path125" />
    <path
       class="cls-8"
       d="M528.12,471l.06.06Z"
       transform="translate(-155.94 -90.15)"
       id="path127" />
    <path
       class="cls-1"
       d="M536.84,459.88c3.45-2.7,6.52-5.06,9.13-7,4.69-3.53,8.27-6.1,9.15-6.73,3.51-2.51,6.34-4.47,8-5.58,4.47-3.06,8-5.34,9.35-6.24,7.9-5.12,14.16-8.79,16.18-10,6.9-4,12.23-6.85,13.72-7.63,6.84-3.61,12.13-6.1,13.43-6.71,0,0,13.14-6.16,25.4-10.48,3.87-1.37,7.63-2.55,7.63-2.55,2.75-.87,4.87-1.48,5.65-1.7,5.18-1.48,9.2-2.41,10.56-2.72,4.54-1,7.93-1.64,8.65-1.76,2.23-.4,4.16-.69,5.66-.9-1.49.49-3.53,1.17-5.92,2-4.3,1.54-7.42,2.8-10.6,4.1-2,.82-7.11,2.91-13.4,5.78-.89.4-3.17,1.44-6.1,2.84-.91.43-3.18,1.52-6.14,3-4.86,2.4-8.54,4.34-9.58,4.89-1.3.68-5.73,3-11.45,6.28-2.82,1.6-5.29,3-7.31,4.24-2.3,1.37-4.41,2.65-6.3,3.81-2.87,1.77-5.34,3.33-7.31,4.59-2.2,1.42-4.78,3.1-7.64,5-3.56,2.39-6.68,4.56-9.3,6.42-2.18,1.54-4.1,2.93-5.71,4.12q-3.3,2.42-6.14,4.58c-2.52,1.92-4.82,3.71-6.86,5.32-.66.52-3.75,3-7.86,6.37-2.12,1.76-3.93,3.28-5.34,4.47-1.54-1.44-3.23-2.93-5.06-4.43Q539,461.45,536.84,459.88Z"
       transform="translate(-155.94 -90.15)"
       id="path129" />
    <path
       class="cls-1"
       d="M524.2,470.31c1.55,1.3,3.14,2.68,4.75,4.16s3.27,3.06,4.76,4.56c-2.15,2-4.05,3.77-5.57,5.29,0,0-2.48,2.39-4.63,4.52l-2.45,2.45-.39.39-.18.19-.17.16-.05.06a.85.85,0,0,0-.12.17,1.24,1.24,0,0,0-.11.29,1.33,1.33,0,0,0,0,.59,1.13,1.13,0,0,0,.05.2,3,3,0,0,0,.14.35l.15.35.12.27.08.17c.3.69,2.73,6.45,2.73,6.45l.74,1.75,1.39,3.29,1.1,2.6c.71,1.68,3.11,7.36,8.86,21q1.26-3,2.5-5.91l12-28.39.74-1.71.06-.13s0-.1.06-.19,0-.2,0-.25a2.47,2.47,0,0,0,0-.33,1,1,0,0,0-.07-.25,1.35,1.35,0,0,0-.22-.37l-.08-.08-.29-.29-.34-.34-.16-.16-.14-.15-.4-.39-1-.95-.45-.46L544.38,486c-1.68-1.64-3-2.86-3.76-3.63-1.86-1.79-2.89-2.74-3.28-3.11l-1.08-1a502.84,502.84,0,0,0-42.37-34.41,440.65,440.65,0,0,0-38.4-24.59,421.3,421.3,0,0,0-63.24-29.18,229,229,0,0,1,31.45,7.44c3.89,1.22,17.27,5.52,37,15.23,23.4,11.52,39.74,22.78,53.65,32.45,25.2,17.52,38.88,30.44,45.4,36.89,1,1,1.79,1.78,2.34,2.33a24.35,24.35,0,0,1,2,2.19,4.56,4.56,0,0,1,1.12,2.69,4.84,4.84,0,0,1-.07,2.07l-.64,2.1c-10.33,34.69-28.09,94.3-28.58,95.79-.07.21-.26.8-.51.8s-.42-.51-.52-.86q-2.73-9.35-5.45-18.7l-11.09-37-12-40.11-.67-2.15a4.31,4.31,0,0,1,0-2.37,6.39,6.39,0,0,1,.83-2,17.12,17.12,0,0,1,1.23-1.49c.46-.44,4.32-4.29,4.32-4.29l.14-.14,3-2.83,1.8-1.58,4.3-3.75Z"
       transform="translate(-155.94 -90.15)"
       id="path131" />
    <path
       class="cls-9"
       d="M634.22,288.07l-91.71-29,56.82-18.56Z"
       transform="translate(-155.94 -90.15)"
       id="path133" />
    <path
       class="cls-9"
       d="M704,373.55c-5.75-8-10.41-14.35-13.41-18.47,0,0-11.12-15.25-23.51-32-4.23-5.71-12-16.15-12.74-17.14s-1.68-2.25-1.68-2.25c-.18-.23-.43-.56-.45-.6-1.37-1.83-1.33-1.75-1.79-2.38L649.1,299c-.15-.2-.38-.5-.68-.87s-.54-.66-.73-.87l.46-.08.64.26,1,.3.75.24c2.59.84,20.72,6.59,20.72,6.59L683,308.27l12.56,4,4.93,1.57,1.19.38.78.25.77.25.63.15v2.74Q703.9,345.59,704,373.55Z"
       transform="translate(-155.94 -90.15)"
       id="path135" />
    <path
       class="cls-9"
       d="M743.45,437.11l-35.13,48.28q0-48.19-.07-96.38Z"
       transform="translate(-155.94 -90.15)"
       id="path137" />
    <path
       class="cls-9"
       d="M704,559.35,646.38,578l57.53-78.64Z"
       transform="translate(-155.94 -90.15)"
       id="path139" />
    <path
       class="cls-9"
       d="M634.43,586.88l-34.75,47.64-56.21-18.41Z"
       transform="translate(-155.94 -90.15)"
       id="path141" />
    <path
       class="cls-9"
       d="M528.88,616l-57.47,18.58-35.36-48.86Z"
       transform="translate(-155.94 -90.15)"
       id="path143" />
    <path
       class="cls-9"
       d="M424.17,577.12l-56-18.29V499.67Z"
       transform="translate(-155.94 -90.15)"
       id="path145" />
    <path
       class="cls-9"
       d="M362.88,484.63l-34-46.93,33.73-46.45Q362.75,437.93,362.88,484.63Z"
       transform="translate(-155.94 -90.15)"
       id="path147" />
    <path
       class="cls-9"
       d="M422.56,298.36l-54.39,75.13q0-28.75,0-57.52Z"
       transform="translate(-155.94 -90.15)"
       id="path149" />
    <path
       class="cls-9"
       d="M527,258.77l-89.44,29.29,34.15-46.93Z"
       transform="translate(-155.94 -90.15)"
       id="path151" />
    <path
       class="cls-9"
       d="M586.74,277.7l-100.18-.37,48.62-15.89Z"
       transform="translate(-155.94 -90.15)"
       id="path153" />
    <path
       class="cls-9"
       d="M670.7,337.79l-80.94-59.14,48.85,15.51Z"
       transform="translate(-155.94 -90.15)"
       id="path155" />
    <path
       class="cls-9"
       d="M704,437.33l-30.87-96.26L704,383.41Z"
       transform="translate(-155.94 -90.15)"
       id="path157" />
    <path
       class="cls-9"
       d="M704,491q-15.67,21.64-31.37,43.28,15.65-47.79,31.31-95.57Z"
       transform="translate(-155.94 -90.15)"
       id="path159" />
    <path
       class="cls-9"
       d="M669.81,538.27,639,580.38l-50,16.18Z"
       transform="translate(-155.94 -90.15)"
       id="path161" />
    <path
       class="cls-9"
       d="M585.6,597.71l-49.65,16-50.16-16.39Z"
       transform="translate(-155.94 -90.15)"
       id="path163" />
    <path
       class="cls-9"
       d="M481.79,596l-50.24-16.5-31.22-43.14Z"
       transform="translate(-155.94 -90.15)"
       id="path165" />
    <path
       class="cls-9"
       d="M399.5,535.25,368.2,492q0-27.15,0-54.29Q383.86,486.47,399.5,535.25Z"
       transform="translate(-155.94 -90.15)"
       id="path167" />
    <path
       class="cls-9"
       d="M399.73,340.14l-31.5,96.18q0-26.26-.08-52.54Q383.95,362,399.73,340.14Z"
       transform="translate(-155.94 -90.15)"
       id="path169" />
    <path
       class="cls-9"
       d="M483.23,278.42l-81.31,58.71,30.71-42.19Z"
       transform="translate(-155.94 -90.15)"
       id="path171" />
    <path
       class="cls-9"
       d="M466.82,239.63l-39.2,51.83-59.48,20.61c-.15-34.83-.36-69.79-.51-104.63C400.67,218.13,433.78,228.94,466.82,239.63Z"
       transform="translate(-155.94 -90.15)"
       id="path173" />
    <path
       class="cls-9"
       d="M363.32,317.75q-.36,31.78-.73,63.57L326.1,433.85l-61.11-84Z"
       transform="translate(-155.94 -90.15)"
       id="path175" />
    <path
       class="cls-9"
       d="M364.09,557.47q-49.47-16-99-32,30.75-42.4,61.58-84.79l36.27,51.51Q363.52,524.85,364.09,557.47Z"
       transform="translate(-155.94 -90.15)"
       id="path177" />
    <path
       class="cls-9"
       d="M467.71,635.79,368.14,668l0-105.37,60.4,20.57Q448.13,609.48,467.71,635.79Z"
       transform="translate(-155.94 -90.15)"
       id="path179" />
    <path
       class="cls-9"
       d="M597.49,637.54,535.4,723.13l-61.71-85.55,62.49-19.16Z"
       transform="translate(-155.94 -90.15)"
       id="path181" />
    <path
       class="cls-9"
       d="M704.26,669,603.18,635.64l38.4-51.22L704,563.5Z"
       transform="translate(-155.94 -90.15)"
       id="path183" />
    <path
       class="cls-9"
       d="M808.65,525.67,707.43,558.23q.48-32.57,1-65.13l37.53-52.72Z"
       transform="translate(-155.94 -90.15)"
       id="path185" />
    <path
       class="cls-9"
       d="M808.35,348.41q-31,42.34-62,84.71L708.2,379.26l-1-63.25Z"
       transform="translate(-155.94 -90.15)"
       id="path187" />
    <path
       class="cls-9"
       d="M704.11,205.88q-.14,52.65-.28,105.3l-60.77-20.33-39.38-51.79Z"
       transform="translate(-155.94 -90.15)"
       id="path189" />
    <path
       class="cls-9"
       d="M596.82,237.1l-62.75,19.38-60.35-18.1,61.14-86.46Q565.84,194.52,596.82,237.1Z"
       transform="translate(-155.94 -90.15)"
       id="path191" />
    <path
       class="cls-9"
       d="M534.86,151.92l-66,85L367.63,207.44a284.05,284.05,0,0,1,167.23-55.52Z"
       transform="translate(-155.94 -90.15)"
       id="path193" />
    <path
       class="cls-9"
       d="M367.63,207.44q-2.06,53.15-4.13,106.29L265,349.87A286.22,286.22,0,0,1,367.63,207.44Z"
       transform="translate(-155.94 -90.15)"
       id="path195" />
    <path
       class="cls-9"
       d="M324,436.92q-29.46,44.29-58.91,88.58A287.39,287.39,0,0,1,265,349.87Q294.48,393.4,324,436.92Z"
       transform="translate(-155.94 -90.15)"
       id="path197" />
    <path
       class="cls-9"
       d="M368.14,668A286.25,286.25,0,0,1,265.08,525.5l99.06,35.82Q366.15,614.65,368.14,668Z"
       transform="translate(-155.94 -90.15)"
       id="path199" />
    <path
       class="cls-9"
       d="M535.4,723.13A284.2,284.2,0,0,1,368.14,668l101.77-29.21Z"
       transform="translate(-155.94 -90.15)"
       id="path201" />
    <path
       class="cls-9"
       d="M704.26,669A284.19,284.19,0,0,1,535.4,723.13l65.52-84.52Z"
       transform="translate(-155.94 -90.15)"
       id="path203" />
    <path
       class="cls-9"
       d="M808.65,525.67A286.06,286.06,0,0,1,704.26,669l3.09-106.84Z"
       transform="translate(-155.94 -90.15)"
       id="path205" />
    <path
       class="cls-9"
       d="M808.65,525.67q-30-44.61-60-89.21l59.66-88a287.32,287.32,0,0,1,.3,177.26Z"
       transform="translate(-155.94 -90.15)"
       id="path207" />
    <path
       class="cls-9"
       d="M808.35,348.41,707.13,312.3l-3-106.42A286.69,286.69,0,0,1,808.35,348.41Z"
       transform="translate(-155.94 -90.15)"
       id="path209" />
    <path
       class="cls-9"
       d="M704.11,205.88l-103,29.9-66.27-83.86a284.34,284.34,0,0,1,169.25,54Z"
       transform="translate(-155.94 -90.15)"
       id="path211" />
    <path
       class="cls-1"
       d="M707.43,558.23q.48-32.57,1-65.13l37.53-52.72,62.72,85.29q-30-44.61-60-89.21l59.66-88q-31,42.34-62,84.71L708.2,379.26l-1-63.25,101.17,32.4L707.13,312.3l-3-106.42q-.14,52.65-.28,105.3l-60.77-20.33-39.38-51.79,100.43-33.18-103,29.9-66.27-83.86q31,42.6,62,85.18l-62.75,19.38-60.35-18.1,61.14-86.46-66,85L367.63,207.44c33,10.69,66.15,21.5,99.19,32.19l-39.2,51.83-59.48,20.61c-.15-34.83-.36-69.79-.51-104.63q-2.06,53.15-4.13,106.29L265,349.87l98.33-32.12q-.36,31.78-.73,63.57L326.1,433.85l-61.11-84q29.49,43.53,59,87.05-29.46,44.29-58.91,88.58,30.75-42.4,61.58-84.79l36.27,51.51q.58,32.63,1.16,65.25-49.47-16-99-32l99.06,35.82q2,53.32,4,106.63l0-105.37,60.4,20.57q19.56,26.33,39.14,52.64L368.14,668l101.77-29.21,65.49,84.39-61.71-85.55,62.49-19.16,61.31,19.12L535.4,723.13l65.52-84.52L704.26,669,603.18,635.64l38.4-51.22L704,563.5l.3,105.46,3.09-106.84,101.3-36.45Zm36-121.12-35.13,48.28q0-48.19-.07-96.38Zm-414.58.59,33.73-46.45q.15,46.68.28,93.38ZM648.15,297.14l.64.26,1,.3.75.24c2.59.84,20.72,6.59,20.72,6.59L683,308.27l12.56,4,4.93,1.57,1.19.38.78.25.77.25.63.15v2.74q0,28,.11,55.94c-5.75-8-10.41-14.35-13.41-18.47,0,0-11.12-15.25-23.51-32-4.23-5.71-12-16.15-12.74-17.14s-1.68-2.25-1.68-2.25c-.18-.23-.43-.56-.45-.6-1.37-1.83-1.33-1.75-1.79-2.38L649.1,299c-.15-.2-.38-.5-.68-.87s-.54-.66-.73-.87ZM368.22,437.7q15.64,48.76,31.28,97.55L368.2,492Q368.2,464.84,368.22,437.7Zm-.07-53.92q15.8-21.81,31.58-43.64l-31.5,96.18Q368.18,410.06,368.15,383.78Zm3.46,53.14,31.68-96.56,82.49-59.59,101.67.33,82,60.07,31,96.85-31.68,96.49-82.47,59.58-101.67-.37-82.06-60.06Zm301.48-95.85L704,383.41v53.92Zm-2.39-3.28-80.94-59.14,48.85,15.51ZM599.33,240.5l34.89,47.57-91.71-29Zm-64.15,20.94,51.56,16.26-100.18-.37Zm-63.45-20.31L527,258.77l-89.44,29.29Zm-39.1,53.81,50.6-16.52-81.31,58.71Zm-10.07,3.42-54.39,75.13q0-28.75,0-57.52ZM368.15,558.83V499.67l56,77.45Zm32.18-22.49L481.79,596l-50.24-16.5Zm71.08,98.25-35.36-48.86L528.88,616ZM536,613.67l-50.16-16.39,99.81.43Zm63.73,20.85-56.21-18.41,91-29.23ZM639,580.38l-50,16.18,80.8-58.29Zm7.39-2.4,57.53-78.64.12,60Zm26.29-43.68q15.65-47.79,31.31-95.57L704,491Q688.37,512.67,672.67,534.3Z"
       transform="translate(-155.94 -90.15)"
       id="path213" />
    <path
       class="cls-9"
       d="M696.35,438.12l-30.92,94.13-80.3,58-99.24-.34L406,531.43l-30.33-94.31q15.47-47.07,30.92-94.13l80.85-58,98.82.45,79.6,58.2Q681.09,390.87,696.35,438.12Z"
       transform="translate(-155.94 -90.15)"
       id="path215" />
    <path
       class="cls-9"
       d="M669.49,341.17l-82-60.07-101.67-.33-82.49,59.59-31.68,96.56,31.05,96.74,82.06,60.06,101.67.37,82.47-59.58L700.54,438Zm-1.91,192.62-81.65,59-100.81-.31-81.37-59.62L373,437.1q15.72-47.82,31.43-95.66,40.92-29.49,81.82-59l100.76.4,81.2,59.45L699,438.11Z"
       transform="translate(-155.94 -90.15)"
       id="path217" />
    <path
       class="cls-1"
       d="M832,418.5c-.64-10.11-1.68-18.37-2.48-23.85A293,293,0,0,0,812.6,330.5c-3.56-9.18-7.12-17-10.16-23.17-1.89-3.85-4.49-8.93-7.79-14.79-2.61-4.63-6.12-10.55-10.53-17.27-3.1-4.71-7-10.31-11.65-16.46-3.46-4.55-7.91-10.15-13.35-16.34-6.21-7.07-11.91-12.87-16.55-17.37-3.41-3.31-8-7.56-13.52-12.31-7.73-6.62-14.54-11.76-19.54-15.36-4.1-3-8.94-6.28-14.48-9.79-7.79-4.94-14.76-8.84-20.36-11.8-7.57-4-14.18-7.06-19.19-9.26a295.9,295.9,0,0,0-404,348.26,294,294,0,0,0,31.44,74.08A296.77,296.77,0,0,0,404.59,702a292.68,292.68,0,0,0,78.18,26.24,296,296,0,0,0,160.71-14.85c5.47-2.11,12.88-5.16,21.41-9.26a295,295,0,0,0,165-226.54c.88-6.46,1.93-15.82,2.42-27.15A299.1,299.1,0,0,0,832,418.5ZM808.65,525.67a287.32,287.32,0,1,1,13.86-89.17A286.57,286.57,0,0,1,808.65,525.67Z"
       transform="translate(-155.94 -90.15)"
       id="path219" />
    <path
       class="cls-9"
       d="M696.35,438.12l-30.92,94.13-80.3,58-99.24-.34L406,531.43l-30.33-94.31q15.47-47.07,30.92-94.13l80.85-58,98.82.45,79.6,58.2Q681.09,390.87,696.35,438.12Z"
       transform="translate(-155.94 -90.15)"
       id="path221" />
    <path
       class="cls-9"
       d="M822.51,436.5A285.2,285.2,0,0,0,534.86,151.92,285.85,285.85,0,0,0,265,349.87,285.66,285.66,0,0,0,368.14,668a285.2,285.2,0,0,0,336.12,1A284.91,284.91,0,0,0,822.51,436.5ZM585.93,592.75l-100.81-.31-81.37-59.62L373,437.1q15.72-47.82,31.43-95.66,40.92-29.49,81.82-59l100.76.4,81.2,59.45L699,438.11l-31.44,95.68Z"
       transform="translate(-155.94 -90.15)"
       id="path223" />
    <path
       class="cls-1"
       d="M668.18,342.29,587,282.84l-100.76-.4q-40.91,29.51-81.82,59Q388.7,389.28,373,437.1l30.78,95.72,81.37,59.62,100.81.31,81.65-59L699,438.11Zm-2.75,190-80.3,58-99.24-.34L406,531.43l-30.33-94.31q15.47-47.07,30.92-94.13l80.85-58,98.82.45,79.6,58.2q15.25,47.26,30.52,94.52Z"
       transform="translate(-155.94 -90.15)"
       id="path225" />
    <path
       class="cls-9"
       d="M696.35,438.12l-30.92,94.13-80.3,58-99.24-.34L406,531.43l-30.33-94.31q15.47-47.07,30.92-94.13l80.85-58,98.82.45,79.6,58.2Q681.09,390.87,696.35,438.12Z"
       transform="translate(-155.94 -90.15)"
       id="path227" />
    <path
       class="cls-9"
       d="M696.35,438.12l-30.92,94.13-80.3,58-99.24-.34L406,531.43l-30.33-94.31q15.47-47.07,30.92-94.13l80.85-58,98.82.45,79.6,58.2Q681.09,390.87,696.35,438.12Z"
       transform="translate(-155.94 -90.15)"
       id="path229" />
    <path
       class="cls-10"
       d="M527.75,294.9c1.59,2.09,3.6,4.89,5.77,8.3a92.48,92.48,0,0,1,5.06,8.8,71.32,71.32,0,0,1,4.69,11.49,74.23,74.23,0,0,1,3.09,17.74c.2,3.9,0,7.26,0,8.72-.14,3-.39,5.5-.64,7.5.32-.33.76-.81,1.25-1.39a38.35,38.35,0,0,0,2.64-3.67,40.47,40.47,0,0,0,2.75-4.81,34,34,0,0,0,1.49-3.59c.48.66,1.11,1.58,1.81,2.73.25.41.54.92,1,1.75,1,1.8,1.81,3.49,2.23,4.41A63.65,63.65,0,0,1,563,365,51.33,51.33,0,0,1,564,376.87a46.63,46.63,0,0,1-.5,5.24,44.49,44.49,0,0,1-1.75,7,49.87,49.87,0,0,1-6.55,12.76,51.27,51.27,0,0,1-4.56,5.54,48.92,48.92,0,0,1-4.64,4.34,51.08,51.08,0,0,1-4.72,3.47s-.69.45-3.1,1.85c-.14.08-.38.22-.69.37l-.57.27c-.4.2-.55.28-.85.4l-.4.14-.37.08h-.05l-.13,0-.12,0-.22-.06-.38-.12-.28-.11c-.81-.36-2-1.06-2-1.06l-.23-.13c-1-.57-2.93-1.87-3.8-2.51a54.76,54.76,0,0,1-9.5-9.16A48.65,48.65,0,0,1,512,393.66a51.09,51.09,0,0,1-2.61-8.73,55.16,55.16,0,0,1-1.12-10.88,67.09,67.09,0,0,1,.32-7.19c.14-1.38.27-2.68.6-4.41a41.83,41.83,0,0,1,1.46-5.42,74.7,74.7,0,0,1,3.13-7.68c.33-.71,1.12-2.44,4.38-9,2.37-4.76,2.35-4.64,3.19-6.38,1.71-3.55,3-6.21,4.33-9.67a56.68,56.68,0,0,0,3.75-13.45,35.34,35.34,0,0,0,.34-6.18,32.12,32.12,0,0,0-.86-6.27A29.48,29.48,0,0,0,527.75,294.9Z"
       transform="translate(-155.94 -90.15)"
       id="path231" />
    <path
       class="cls-11"
       d="M535.29,804.88"
       transform="translate(-155.94 -90.15)"
       id="path233" />
    <path
       class="cls-11"
       d="M268.09,739c-.1.2-.2.4-.29.61a133,133,0,0,0-12.07,40.68,73.47,73.47,0,0,1-45.12,2,52.69,52.69,0,0,1-5.18-26.72,118.67,118.67,0,0,1-45.87,1.27,45.77,45.77,0,0,0,17.28-12.13,26.48,26.48,0,0,0,6-10.46,24.6,24.6,0,0,0,.89-6.26,31.61,31.61,0,0,0-23.49-32.17c19.76,2.82,33.27-.66,42.21-4.68,8.31-3.74,17.93-10.31,21.11-7.32.18.17.53.55.66,1.82v0a.34.34,0,0,0,0,.1,23.41,23.41,0,0,1-.42,5.58c-1.21,7.44-3.67,12.84-6.38,19-3.72,8.52-5,11.86-5.25,13.4a1.79,1.79,0,0,0,.14,1.41c1.52,2.66,6.64,3.17,12.63,2.44a67.33,67.33,0,0,0,14.18-3.46c10.79-3.91,11.62-7.63,28.85-16.21,13.09-6.52,18.44-7.28,22.22-5a10.66,10.66,0,0,1,4.81,7.15h0c0,.1,0,.19.05.3s0,.06,0,.09v0C296.31,722.22,273.14,729.36,268.09,739Z"
       transform="translate(-155.94 -90.15)"
       id="path235" />
    <path
       class="cls-11"
       d="M535.56,783.86h-.07"
       transform="translate(-155.94 -90.15)"
       id="path237" />
    <path
       class="cls-12"
       d="M226,709.69a161.39,161.39,0,0,1-1,17.88c-6,.73-11.11.22-12.63-2.44a1.79,1.79,0,0,1-.14-1.41c.28-1.54,1.53-4.88,5.25-13.4,2.71-6.18,5.17-11.58,6.38-19a23.41,23.41,0,0,0,.42-5.58A160,160,0,0,1,226,709.69Z"
       transform="translate(-155.94 -90.15)"
       id="path239" />
    <path
       class="cls-13"
       d="M224.22,685.62a0,0,0,0,1,0,0"
       transform="translate(-155.94 -90.15)"
       id="path241" />
    <path
       class="cls-14"
       d="M297.09,738.92a183.62,183.62,0,0,1-1.55,22.53c-24.43-8.59-28.29-14.52-28.41-18.62a7.43,7.43,0,0,1,.67-3.23c.09-.21.19-.41.29-.61,5.05-9.63,28.22-16.77,27-28.47A183.32,183.32,0,0,1,297.09,738.92Z"
       transform="translate(-155.94 -90.15)"
       id="path243" />
    <path
       class="cls-11"
       d="M212.18,723.68a137.06,137.06,0,0,0-6.75,31.84"
       transform="translate(-155.94 -90.15)"
       id="path245" />
    <path
       class="cls-13"
       d="M536.58,888.54"
       transform="translate(-155.94 -90.15)"
       id="path247" />
    <path
       class="cls-11"
       d="M535.76,811.27"
       transform="translate(-155.94 -90.15)"
       id="path249" />
    <path
       class="cls-11"
       d="M536.2,846.24"
       transform="translate(-155.94 -90.15)"
       id="path251" />
    <path
       class="cls-11"
       d="M536.31,854.39"
       transform="translate(-155.94 -90.15)"
       id="path253" />
    <path
       class="cls-11"
       d="M816.77,803.26a156.52,156.52,0,0,1-.91,16c-43.92,24.53-81.69,34.39-107.34,38.86-44.78,7.81-62.75,2.06-116.32,6.2-13,1-32.25,2.93-55.73,7-13.15-2-33.18-4.77-57.7-7-60.45-5.48-83.29-.44-116.32-6.2-25.65-4.47-63.42-14.33-107.34-38.86a158.75,158.75,0,0,1,.62-39A133,133,0,0,1,267.8,739.6a7.43,7.43,0,0,0-.67,3.23c.12,4.1,4,10,28.41,18.62h0c4.95,1.74,10.75,3.59,17.54,5.55,42.83,12.41,70.47,14.64,70.47,14.64a1307.17,1307.17,0,0,0,152.17,8.86,1308.25,1308.25,0,0,0,151.68-8.86s27.64-2.23,70.47-14.64c6.79-2,12.59-3.81,17.54-5.56,24.44-8.58,28.3-14.51,28.42-18.61a7.43,7.43,0,0,0-.67-3.23,133.78,133.78,0,0,1,12.07,40.68A159.36,159.36,0,0,1,816.77,803.26Z"
       transform="translate(-155.94 -90.15)"
       id="path255" />
    <path
       class="cls-11"
       d="M911.41,756.79a118.67,118.67,0,0,1-45.87-1.27,52.56,52.56,0,0,1-5.19,26.72,73.44,73.44,0,0,1-45.11-2,133.78,133.78,0,0,0-12.07-40.68c-.09-.21-.19-.41-.29-.61-5-9.62-28.24-16.78-27-28.48a2,2,0,0,1,0-.26,1,1,0,0,1,0-.17h0a10.66,10.66,0,0,1,4.81-7.15c3.78-2.3,9.13-1.54,22.21,5,17.24,8.58,18.07,12.3,28.86,16.21A67.33,67.33,0,0,0,846,727.57c6,.73,11.1.22,12.62-2.44a1.78,1.78,0,0,0,.14-1.45c-.29-1.56-1.56-4.92-5.24-13.36-2.71-6.18-5.18-11.58-6.39-19a23.27,23.27,0,0,1-.4-5.71c.13-1.27.48-1.65.66-1.82,3.18-3,12.8,3.58,21.11,7.32,8.94,4,22.45,7.5,42.21,4.68a31.61,31.61,0,0,0-23.49,32.17,24.6,24.6,0,0,0,.89,6.26,26.48,26.48,0,0,0,6,10.46A45.77,45.77,0,0,0,911.41,756.79Z"
       transform="translate(-155.94 -90.15)"
       id="path257" />
    <path
       class="cls-13"
       d="M775.9,710.51a.57.57,0,0,1,0-.13l0-.13"
       transform="translate(-155.94 -90.15)"
       id="path259" />
    <path
       class="cls-11"
       d="M535.49,783.86h-.08"
       transform="translate(-155.94 -90.15)"
       id="path261" />
    <path
       class="cls-15"
       d="M858.64,725.13c-1.52,2.66-6.63,3.17-12.62,2.44a160.21,160.21,0,0,1,.73-42,23.27,23.27,0,0,0,.4,5.71c1.21,7.44,3.68,12.84,6.39,19,3.68,8.44,5,11.8,5.24,13.36A1.78,1.78,0,0,1,858.64,725.13Z"
       transform="translate(-155.94 -90.15)"
       id="path263" />
    <path
       class="cls-16"
       d="M803.84,742.83c-.12,4.1-4,10-28.42,18.61a183.46,183.46,0,0,1,.48-50.93c-1.26,11.7,21.93,18.86,27,28.48.1.2.2.4.29.61A7.43,7.43,0,0,1,803.84,742.83Z"
       transform="translate(-155.94 -90.15)"
       id="path265" />
    <line
       class="cls-13"
       x1="619.48"
       y1="671.3"
       x2="619.48"
       y2="671.29"
       id="line267" />
    <path
       class="cls-11"
       d="M858.78,723.68a135.7,135.7,0,0,1,6.75,31.84"
       transform="translate(-155.94 -90.15)"
       id="path269" />
  </g>
  <g
     id="Layer_2"
     data-name="Layer 2">
    <path
       class="cls-17"
       d="M412.14,814.77l.2-.22,4.42.41a5.91,5.91,0,0,1-1.11-3.94c.29-3.13,3.2-5.93,8.09-5.51,5.19.45,9.86,3.71,14.15,9.23-.3.34-.59.69-.88,1h-.18c-3.34-4.15-7.1-7.2-11.74-7.6-3.72-.31-6.75,1.36-7,4.51a3.79,3.79,0,0,0,.47,2.45l3.5.3.88,2.2-.2.24-4-.35q-.85,10-1.69,20.06l-.25.22-2.46-.88c.59-6.55,1.25-13.08,1.85-19.63L413,817C412.71,816.25,412.42,815.51,412.14,814.77Z"
       transform="translate(-155.94 -90.15)"
       id="path272" />
    <path
       class="cls-17"
       d="M420.92,815.57l.2-.23q10.49.92,21,1.66l.92,2.21-.2.22-4-.28q-.71,10-1.39,20.07l-.24.23-2.48-.85.54-5.88a8.5,8.5,0,0,1-5.26,1.22c-4.09-.32-7.56-3.8-7.23-7.61.28-3.35,3.32-5.16,7.23-4.84a24.72,24.72,0,0,1,6,1.26c.1-1.27.19-2.53.29-3.79q-7.25-.56-14.48-1.18C421.51,817.05,421.21,816.31,420.92,815.57ZM432,824.09c-4.62-.36-6.48,1.7-6.66,3.83-.14,1.66,1,3.24,3.66,3.45,1.84.15,6.42-.56,6.69-4.17l.18-2.35A16.77,16.77,0,0,0,432,824.09Z"
       transform="translate(-155.94 -90.15)"
       id="path274" />
    <path
       class="cls-17"
       d="M441,817.17l.2-.23q12.18.88,24.39,1.53c.31.73.63,1.46.95,2.19l-.19.23-4-.22q-.57,11.25-1.15,22.51l-.23.23-2.52-.8.33-4.16-.08-.07a8.52,8.52,0,0,1-5.64,1.73,7.17,7.17,0,0,1-5.18-2.71,5.54,5.54,0,0,1-1.62-3.81,3,3,0,0,1,.7-1.74c-2.32-2-3.89-3.85-3.75-5.85a2.6,2.6,0,0,1,1.47-2.23c.91-.51,2.59-.59,4.77-.45l2.81.18a.52.52,0,0,0,.63-.53l.18-2.85q-5.56-.35-11.14-.75C441.63,818.64,441.33,817.9,441,817.17Zm14.47,3.1-.3,5.64-.28.29c-1.32-.1-2.63-.19-4-.27-2.61-.17-3.86.1-4.43.59a1.79,1.79,0,0,0-.65,1.36c-.08,1.19.95,2.18,3.63,2.36.83,0,2.29.08,4.4.12.3.8.6,1.6.91,2.39l-.1.15c-4.31-.2-5.85.64-5.95,2.27-.1,1.44,1.31,2.26,3.23,2.38a8.33,8.33,0,0,0,4.06-.8,4.94,4.94,0,0,0,3.12-4.73l.66-11.49Z"
       transform="translate(-155.94 -90.15)"
       id="path276" />
    <path
       class="cls-17"
       d="M464.53,818.66l.19-.24c3.24.18,6.47.34,9.71.49.32.73.64,1.46,1,2.18l-.19.24-4-.2-.9,20.11-.24.23-2.49-.78q.54-9.84,1.07-19.68l-3.15-.17C465.16,820.11,464.85,819.38,464.53,818.66Z"
       transform="translate(-155.94 -90.15)"
       id="path278" />
    <path
       class="cls-17"
       d="M482.56,819.51l.18-.23,4.44.17a5.92,5.92,0,0,1-1.32-3.87c.13-3.14,2.89-6.09,7.79-5.93,5.19.17,10,3.18,14.6,8.47l-.82,1.08h-.18c-3.55-4-7.46-6.81-12.12-7-3.72-.12-6.66,1.71-6.78,4.87a3.79,3.79,0,0,0,.6,2.42l3.51.12,1,2.14-.18.26-4-.14q-.33,10.07-.63,20.12l-.24.23-2.5-.75c.25-6.56.56-13.12.81-19.69l-3.15-.12C483.21,821,482.88,820.24,482.56,819.51Z"
       transform="translate(-155.94 -90.15)"
       id="path280" />
    <path
       class="cls-17"
       d="M491.36,819.84l.19-.23q10.51.36,21,.55l1,2.15-.18.24-4-.08-.33,20.13-.23.23-2.51-.71c.07-2,.15-3.94.22-5.91a8.43,8.43,0,0,1-5.18,1.5c-4.1-.11-7.75-3.39-7.62-7.21.11-3.36,3.05-5.33,7-5.22a24.89,24.89,0,0,1,6.06.94c0-1.27.06-2.54.08-3.8q-7.25-.17-14.5-.41C492,821.29,491.69,820.57,491.36,819.84Zm11.52,7.93c-4.64-.12-6.38,2-6.44,4.18-.05,1.66,1.16,3.17,3.83,3.25,1.84,0,6.37-.9,6.45-4.52l.06-2.35A16.69,16.69,0,0,0,502.88,827.77Z"
       transform="translate(-155.94 -90.15)"
       id="path282" />
    <path
       class="cls-17"
       d="M511.51,820.38l.18-.24q10.32.21,20.63.24l1.06,2.13-.18.24h-4q0,10.07,0,20.12l-.23.24-2.54-.67.18-11.19c-1.07-.11-2.15-.19-3.33-.2a13.39,13.39,0,0,0-3.7.37c0,.56,0,1.12,0,1.67a5.11,5.11,0,0,1-.25,1.89,1.61,1.61,0,0,1-1.51.81c-1,0-3.88-3-3.85-4.89a2.24,2.24,0,0,1,1.62-1.93,11,11,0,0,1,4.32-.64c2,0,4.33.22,6.74.48,0-2,0-4,0-6.08q-7-.06-14.11-.19Z"
       transform="translate(-155.94 -90.15)"
       id="path284" />
    <path
       class="cls-17"
       d="M531.25,820.62l.18-.24q10.7,0,21.39-.08l1.09,2.11-.17.25-4,0,.3,20.13-.23.24-2.55-.64c0-2.11,0-4.22,0-6.33a7.43,7.43,0,0,1-4.66,1.42c-4.41,0-7.38-3.66-8.84-8l.23-.37c3-1,5.29-1.71,5.29-3.58a4.28,4.28,0,0,0-1.3-2.77h-5.69C532,822,531.61,821.33,531.25,820.62Zm9,2.14a7.78,7.78,0,0,1,1.55,4c0,2.1-1.19,3.12-4.17,4.2-.42.15-.6.33-.6.59a4.67,4.67,0,0,0,4.73,3.38,7.13,7.13,0,0,0,4-1.21,3.58,3.58,0,0,0,1.52-3.24l-.06-7.8Z"
       transform="translate(-155.94 -90.15)"
       id="path286" />
    <path
       class="cls-17"
       d="M547.59,820.79c-.68-1.47-1.35-2.94-2.11-4.4-1.28-2.5-2-3.57-4.59-3.57a15.37,15.37,0,0,0-3.93.58l-.18-.13c-.37-1-.75-2-1.12-3a15.52,15.52,0,0,1,4.27-.58c4.16,0,5,2.69,9.39,10.87l-.16.22Z"
       transform="translate(-155.94 -90.15)"
       id="path288" />
    <path
       class="cls-17"
       d="M551.76,820.55l.17-.24q10.32-.12,20.64-.39c.37.7.74,1.4,1.12,2.1l-.17.25-4,.1.6,20.12-.22.25-2.56-.6c0-3.73-.11-7.46-.16-11.19a32.76,32.76,0,0,0-3.33-.1,13.6,13.6,0,0,0-3.69.48l0,1.67a5.1,5.1,0,0,1-.19,1.89,1.66,1.66,0,0,1-1.49.87c-1,0-4-2.85-4-4.78a2.26,2.26,0,0,1,1.56-2,11.15,11.15,0,0,1,4.3-.77c2,0,4.33.1,6.75.28-.05-2-.09-4-.14-6.08q-7.05.15-14.11.24Z"
       transform="translate(-155.94 -90.15)"
       id="path290" />
    <path
       class="cls-17"
       d="M580.71,819.92l.17-.25q10.29-.33,20.58-.83l1.17,2.08-.17.25-5,.23c.1,2.17.21,4.35.32,6.52l-.22.23-3.28.14c-5.18.22-7.55,1.91-7.45,4.78.1,2.55,2.17,4.43,5.25,4.31a7.75,7.75,0,0,0,3.42-1,2.89,2.89,0,0,1-1-2.12,2.67,2.67,0,0,1,2.6-2.66,3.11,3.11,0,0,1,2.29.84,3.32,3.32,0,0,1,1.14,2.32,3.61,3.61,0,0,1-1.77,3.1c2.43,2,3.42,3.65,3.48,5,.09,1.8-.94,3.12-2.47,4.25h-.18l-2.79-2c1.52-1.08,2.48-2.22,2.42-3.58a4.29,4.29,0,0,0-1.71-2.92,9,9,0,0,1-4.06,1.06c-5.41.22-9.31-3.69-9.44-7.75-.14-3.87,3-5.93,7.35-6.11l3.1-.13c.44,0,.65-.25.64-.64-.06-1.19-.11-2.39-.16-3.58q-6.59.29-13.17.51Z"
       transform="translate(-155.94 -90.15)"
       id="path292" />
    <path
       class="cls-17"
       d="M600.41,819.13l.16-.25,4-.19c-.61-5.06-2.77-7.45-5.76-7.31a3,3,0,0,0-3.11,3.13,6.12,6.12,0,0,0,1.64,3.62l-.18.25-2.4-1a6.06,6.06,0,0,1-1.84-3.82c-.1-2.3,1.47-4.23,4.55-4.37,4.22-.19,8.52,3.63,9.58,9.34l3.19-.17c.4.69.79,1.38,1.18,2.07l-.16.25-4,.22L608.42,841l-.21.25-2.56-.53q-.45-9.84-.92-19.68l-3.16.15Z"
       transform="translate(-155.94 -90.15)"
       id="path294" />
    <path
       class="cls-17"
       d="M609.23,818.69l.16-.25q15.95-.87,31.86-2.11l1.23,2-.16.26-4,.31q.83,10,1.64,20.06l-.21.26-2.59-.47c-.13-2.1-.25-4.21-.38-6.32a7.43,7.43,0,0,1-4.56,1.72,7.89,7.89,0,0,1-6.37-2.65,6.85,6.85,0,0,1-4.65,2.24,7.7,7.7,0,0,1-5.38-2c-1.3-1.12-2.11-2.76-2.29-5.94-.11-1.78-.2-3.47-.24-5.25l-2.86.16Zm7,7.63c.22,3.73,1.26,5.35,3.59,5.2a6.3,6.3,0,0,0,4.26-2.22,16.24,16.24,0,0,1-1.26-2.54c.06-.13.13-.26.2-.39,3-1.18,5.16-2.06,5-3.92a4.24,4.24,0,0,0-1.48-2.68q-5.31.36-10.63.67C616.06,822.48,616.14,824.28,616.26,826.32Zm12.55-6.7a7.77,7.77,0,0,1,1.81,3.93c.15,2.11-1,3.2-3.88,4.47-.42.18-.58.37-.57.63a4.68,4.68,0,0,0,5,3.06,7.11,7.11,0,0,0,3.92-1.47,3.58,3.58,0,0,0,1.31-3.33l-.57-7.78C633.45,819.3,631.13,819.47,628.81,819.62Z"
       transform="translate(-155.94 -90.15)"
       id="path296" />
    <path
       class="cls-17"
       d="M640.2,816.66l.16-.26q10.39-.79,20.78-1.77l1.26,2-.15.26-4,.37q1,10,1.91,20c-.06.09-.13.17-.2.26l-2.58-.43-1.05-12.81c-1.09,0-2.25.13-3.45.23-5,.43-6.68,2.24-6.53,4.19.18,2.23,2.65,4.61,6.92,6.68-.57.95-1.14,1.9-1.7,2.85l-.21,0c-4.64-3.49-7.1-7-7.37-10.42s1.45-5.42,7.19-5.91c1.73-.14,3.33-.26,4.92-.29-.12-1.39-.25-2.79-.37-4.18q-7.14.63-14.28,1.19Z"
       transform="translate(-155.94 -90.15)"
       id="path298" />
    <path
       class="cls-17"
       d="M656.07,815.54c-.8-1.41-1.59-2.82-2.47-4.22-1.47-2.39-2.31-3.39-4.86-3.18a14.89,14.89,0,0,0-3.88.9l-.18-.12c-.46-1-.91-1.94-1.36-2.91a15.11,15.11,0,0,1,4.21-.92c4.15-.35,5.22,2.27,10.24,10.07l-.13.23Z"
       transform="translate(-155.94 -90.15)"
       id="path300" />
  </g>
</svg>
